<?xml version="1.0" encoding="UTF-8" standalone="no"?>
<!-- Created with Inkscape (http://www.inkscape.org/) -->

<svg width="210mm" height="297mm" viewBox="0 0 210 297" version="1.1" id="svg5"
  sodipodi:docname="ojigiSteveInkscape.svg" xml:space="preserve" inkscape:version="1.2.1 (9c6d41e410, 2022-07-14)"
  inkscape:export-filename="..\..\aaa.svg" inkscape:export-xdpi="1200" inkscape:export-ydpi="1200"
  xmlns:inkscape="http://www.inkscape.org/namespaces/inkscape"
  xmlns:sodipodi="http://sodipodi.sourceforge.net/DTD/sodipodi-0.dtd" xmlns:xlink="http://www.w3.org/1999/xlink"
  xmlns="http://www.w3.org/2000/svg" xmlns:svg="http://www.w3.org/2000/svg">
  <sodipodi:namedview id="namedview7" pagecolor="#ffffff" bordercolor="#000000" borderopacity="0.25"
    inkscape:showpageshadow="2" inkscape:pageopacity="0.0" inkscape:pagecheckerboard="false"
    inkscape:deskcolor="#d1d1d1" inkscape:document-units="mm" showgrid="true" inkscape:lockguides="true"
    inkscape:zoom="0.50000001" inkscape:cx="48.999999" inkscape:cy="515.99999" inkscape:window-width="1920"
    inkscape:window-height="1009" inkscape:window-x="-8" inkscape:window-y="-8" inkscape:window-maximized="1"
    inkscape:current-layer="layer7-7">
    <inkscape:grid type="xygrid" id="grid17" enabled="true" units="mm" spacingx="2" spacingy="2" empspacing="4"
      dotted="false" snapvisiblegridlinesonly="false" originx="4" originy="4" />
  </sodipodi:namedview>
  <defs id="defs2">
    <rect x="430.86615" y="98.267715" width="75.589645" height="19.371418" id="rect3001" />
    <clipPath clipPathUnits="userSpaceOnUse" id="clipPath489">
      <path style="fill:#000000;stroke-width:0.264583"
        d="m 16.000001,0 h 15.999998 v 16 h 16 16 v 15.999999 h -16 -16 -15.999998 -16 V 16 h 16 z" id="path491"
        clip-path="none" />
    </clipPath>
    <clipPath clipPathUnits="userSpaceOnUse" id="clipPath590">
      <path style="fill:#000000;stroke-width:0.264583" d="m 30.000001,55.999999 h 16 v 16 h -16 v -16" id="path592" />
    </clipPath>
    <clipPath clipPathUnits="userSpaceOnUse" id="clipPath449">
      <path style="fill:#000000;stroke-width:0.264583" d="m 31.999999,102 h 6 v -9.999999 l -6,-6" id="path451" />
    </clipPath>
    <clipPath clipPathUnits="userSpaceOnUse" id="clipPath453">
      <path style="fill:#000000;stroke-width:0.264583" d="m 47.999999,102 h -6 V 92 l 6,-5.999998" id="path455" />
    </clipPath>
    <clipPath clipPathUnits="userSpaceOnUse" id="clipPath457">
      <path style="fill:#000000;stroke-width:0.264583" d="m 38,76.000002 v 16 h 6.000002 V 82 L 38,76.000002"
        id="path459" />
    </clipPath>
    <clipPath clipPathUnits="userSpaceOnUse" id="clipPath461">
      <path style="fill:#000000;stroke-width:0.264583" d="m 54.000001,92.000002 h -6.000002 v -10 l 6.000002,-6"
        id="path463" />
    </clipPath>
    <clipPath clipPathUnits="userSpaceOnUse" id="clipPath556">
      <path style="fill:#000000;stroke-width:0.264583" d="m 42.000003,82 -6.000001,6 h -4 l -5.999999,-6"
        id="path558" />
    </clipPath>
    <clipPath clipPathUnits="userSpaceOnUse" id="clipPath560">
      <path style="fill:#000000;stroke-width:0.264583" d="M 11.999999,95.999998 18,94 V 81.999999 l -6.000001,-2"
        id="path562" />
    </clipPath>
    <clipPath clipPathUnits="userSpaceOnUse" id="clipPath564">
      <path style="fill:#000000;stroke-width:0.264583" d="m 55.999998,63.999998 h 16 L 65.999999,70 h -4"
        id="path566" />
    </clipPath>
    <clipPath clipPathUnits="userSpaceOnUse" id="clipPath1122">
      <path style="fill:#000000;stroke:none;stroke-width:0.264583"
        d="m 106,122 c 8,0 8,0 8,0 v -8 h 8 v 8 h 16 v 24 h -32" id="path1124" />
    </clipPath>
    <clipPath clipPathUnits="userSpaceOnUse" id="clipPath1158">
      <path style="fill:#000000;stroke:none;stroke-width:0.264583" d="m 122,114 h 8 v 8 h -8" id="path1160" />
    </clipPath>
    <clipPath clipPathUnits="userSpaceOnUse" id="clipPath1324">
      <path style="fill:#000000;stroke:none;stroke-width:0.264583" d="m 138,122 -6,2 v 20 l 6,2" id="path1326" />
    </clipPath>
    <clipPath clipPathUnits="userSpaceOnUse" id="clipPath1407">
      <path style="fill:#000000;stroke:none;stroke-width:0.264583" d="m 138,122 c 0,0 -2,4 -2,4 h -4 l -2,-4"
        id="path1409" />
    </clipPath>
    <clipPath clipPathUnits="userSpaceOnUse" id="clipPath1509">
      <path style="fill:#000000;stroke:none;stroke-width:0.264583" d="m 122,122 v -8 h 4 v 6" id="path1511" />
    </clipPath>
    <clipPath clipPathUnits="userSpaceOnUse" id="clipPath1513">
      <path style="fill:#000000;stroke:none;stroke-width:0.264583" d="m 130,114 h -4 v 6 l 4,2" id="path1515" />
    </clipPath>
    <clipPath clipPathUnits="userSpaceOnUse" id="clipPath1517">
      <path style="fill:#000000;stroke:none;stroke-width:0.264583" d="m 138,146 -2,-4 h -4 l -2,4" id="path1519" />
    </clipPath>
    <clipPath clipPathUnits="userSpaceOnUse" id="clipPath1591">
      <path style="fill:#000000;stroke:none;stroke-width:0.264583" d="m 114,114 4,2 v 6 h -4" id="path1593" />
    </clipPath>
    <clipPath clipPathUnits="userSpaceOnUse" id="clipPath1595">
      <path style="fill:#000000;stroke:none;stroke-width:0.264583" d="m 118,122 v -6 l 4,-2 v 8" id="path1597" />
    </clipPath>
    <clipPath clipPathUnits="userSpaceOnUse" id="clipPath1827">
      <rect style="fill:#000000;stroke:none;stroke-width:0.264583" id="rect1829" width="8" height="8" x="175.99998"
        y="202" />
    </clipPath>
    <clipPath clipPathUnits="userSpaceOnUse" id="clipPath1978">
      <rect style="fill:#000000;stroke:none;stroke-width:0.264583" id="rect1980" width="8" height="24" x="183.99998"
        y="210" />
    </clipPath>
    <clipPath clipPathUnits="userSpaceOnUse" id="clipPath2058">
      <path style="fill:#000000;stroke:none;stroke-width:0.264583" d="m 191.99998,210 -2,4 h -4 l -2,-4"
        id="path2060" />
    </clipPath>
    <clipPath clipPathUnits="userSpaceOnUse" id="clipPath2062">
      <path style="fill:#000000;stroke:none;stroke-width:0.264583" d="m 172,210 v -6 l -4,-2 v 8" id="path2064" />
    </clipPath>
    <clipPath clipPathUnits="userSpaceOnUse" id="clipPath2066">
      <path style="fill:#000000;stroke:none;stroke-width:0.264583" d="m 172,210 h 4 v -8 l -4,2" id="path2068" />
    </clipPath>
    <clipPath clipPathUnits="userSpaceOnUse" id="clipPath2082">
      <path style="fill:#000000;stroke:none;stroke-width:0.264583"
        d="m 160,210 h 8 v -8 h 8 v 8 h 8 l 6,2 v 20 l -6,2 h -8 v 8 h -8 v -8 h -8" id="path2084" />
    </clipPath>
    <clipPath clipPathUnits="userSpaceOnUse" id="clipPath2086">
      <path style="fill:#000000;stroke:none;stroke-width:0.264583" d="m 175.99998,210 h 4 v -6 l -4,-2" id="path2088" />
    </clipPath>
    <clipPath clipPathUnits="userSpaceOnUse" id="clipPath2090">
      <path style="fill:#000000;stroke:none;stroke-width:0.264583" d="m 183.99998,210 h -4 v -6 l 4,-2" id="path2092" />
    </clipPath>
    <clipPath clipPathUnits="userSpaceOnUse" id="clipPath2094">
      <path style="fill:#000000;stroke:none;stroke-width:0.264583" d="m 191.99998,234 -2,-4 h -4 l -2,4"
        id="path2096" />
    </clipPath>
    <clipPath clipPathUnits="userSpaceOnUse" id="clipPath3217">
      <path style="fill:#000000;stroke:none;stroke-width:0.264583" d="M 64.000001,90 62,98 H 50 l -1.999999,-8"
        id="path3219" />
    </clipPath>
    <clipPath clipPathUnits="userSpaceOnUse" id="clipPath3227">
      <path style="fill:#000000;stroke:none;stroke-width:0.264583" d="m 39.999999,122 h 4 v -22 l -4,-2"
        id="path3229" />
    </clipPath>
    <clipPath clipPathUnits="userSpaceOnUse" id="clipPath3233">
      <path style="fill:#000000;stroke:none;stroke-width:0.264583"
        d="m 44,122 v -22 l 4,-2 v -8 h 15.999999 v 8 h 24 v 24" id="path3235" />
    </clipPath>
    <clipPath clipPathUnits="userSpaceOnUse" id="clipPath3297">
      <rect style="fill:#000000;stroke:none;stroke-width:0.264583" id="rect3299" width="16" height="24" x="12.000004"
        y="176" />
    </clipPath>
    <clipPath clipPathUnits="userSpaceOnUse" id="clipPath3436">
      <rect style="fill:#000000;stroke:none;stroke-width:0.264583" id="rect3438" width="8" height="24" x="36" y="176" />
    </clipPath>
    <clipPath clipPathUnits="userSpaceOnUse" id="clipPath3640">
      <path style="fill:#000000;stroke:#ffffff;stroke-width:0.264583"
        d="m 12.000001,175.99998 8,2.00001 v 20 l -8,1.99999" id="path3642" />
    </clipPath>
    <clipPath clipPathUnits="userSpaceOnUse" id="clipPath3748">
      <rect style="fill:#000000;stroke:#ffffff;stroke-width:0.264583" id="rect3750" width="16" height="18" x="168"
        y="158" />
    </clipPath>
    <clipPath clipPathUnits="userSpaceOnUse" id="clipPath3820">
      <path style="fill:#000000;stroke:#ffffff;stroke-width:0.264583" d="m 184,158 -8,2 v 14 l 8,2" id="path3822" />
    </clipPath>
    <clipPath clipPathUnits="userSpaceOnUse" id="clipPath3214">
      <rect style="fill:#000000;stroke:none;stroke-width:0.27555" id="rect3216" width="17" height="24.5" x="35.5"
        y="113.5" />
    </clipPath>
    <clipPath clipPathUnits="userSpaceOnUse" id="clipPath3220">
      <rect style="fill:#000000;stroke:none;stroke-width:0.271179" id="rect3222" width="8.3000002" height="24.299999"
        x="88" y="233.7" />
    </clipPath>
    <clipPath clipPathUnits="userSpaceOnUse" id="clipPath927">
      <path id="path929" style="stroke:#ffffff;stroke-width:0.264583" d="m 139,158 h 26 v 18 h -26 z"
        sodipodi:nodetypes="ccccc" />
    </clipPath>
    <rect x="430.86615" y="98.267715" width="75.589645" height="19.371418" id="rect3001-8-5" />
    <rect x="430.86615" y="98.267715" width="69.55217" height="52.760452" id="rect3001-0" />
    <rect x="430.86615" y="98.267715" width="69.55217" height="52.760452" id="rect3001-0-9" />
    <clipPath clipPathUnits="userSpaceOnUse" id="clipPath3217-9">
      <path style="fill:#000000;stroke:none;stroke-width:0.264583" d="M 64.000001,90 62,98 H 50 l -1.999999,-8"
        id="path3219-5" />
    </clipPath>
    <clipPath clipPathUnits="userSpaceOnUse" id="clipPath3227-5">
      <path style="fill:#000000;stroke:none;stroke-width:0.264583" d="m 39.999999,122 h 4 v -22 l -4,-2"
        id="path3229-59" />
    </clipPath>
    <clipPath clipPathUnits="userSpaceOnUse" id="clipPath3214-5">
      <rect style="fill:#000000;stroke:none;stroke-width:0.27555" id="rect3216-86" width="17" height="24.5" x="35.5"
        y="113.5" />
    </clipPath>
    <clipPath clipPathUnits="userSpaceOnUse" id="clipPath3640-4">
      <path style="fill:#000000;stroke:#ffffff;stroke-width:0.264583"
        d="m 12.000001,175.99998 8,2.00001 v 20 l -8,1.99999" id="path3642-3" />
    </clipPath>
    <clipPath clipPathUnits="userSpaceOnUse" id="clipPath3297-8">
      <rect style="fill:#000000;stroke:none;stroke-width:0.264583" id="rect3299-5" width="16" height="24" x="12.000004"
        y="176" />
    </clipPath>
    <clipPath clipPathUnits="userSpaceOnUse" id="clipPath3220-4">
      <rect style="fill:#000000;stroke:none;stroke-width:0.271179" id="rect3222-86" width="8.3000002" height="24.299999"
        x="88" y="233.7" />
    </clipPath>
    <clipPath clipPathUnits="userSpaceOnUse" id="clipPath3436-3">
      <rect style="fill:#000000;stroke:none;stroke-width:0.264583" id="rect3438-4" width="8" height="24" x="36"
        y="176" />
    </clipPath>
    <clipPath clipPathUnits="userSpaceOnUse" id="clipPath3233-8">
      <path style="fill:#000000;stroke:none;stroke-width:0.264583"
        d="m 44,122 v -22 l 4,-2 v -8 h 15.999999 v 8 h 24 v 24" id="path3235-9" />
    </clipPath>
    <clipPath clipPathUnits="userSpaceOnUse" id="clipPath590-9">
      <path style="fill:#000000;stroke-width:0.264583" d="m 30.000001,55.999999 h 16 v 16 h -16 v -16" id="path592-9" />
    </clipPath>
    <clipPath clipPathUnits="userSpaceOnUse" id="clipPath453-4">
      <path style="fill:#000000;stroke-width:0.264583" d="m 47.999999,102 h -6 V 92 l 6,-5.999998" id="path455-6" />
    </clipPath>
    <clipPath clipPathUnits="userSpaceOnUse" id="clipPath449-4">
      <path style="fill:#000000;stroke-width:0.264583" d="m 31.999999,102 h 6 v -9.999999 l -6,-6" id="path451-1" />
    </clipPath>
    <clipPath clipPathUnits="userSpaceOnUse" id="clipPath457-4">
      <path style="fill:#000000;stroke-width:0.264583" d="m 38,76.000002 v 16 h 6.000002 V 82 L 38,76.000002"
        id="path459-6" />
    </clipPath>
    <clipPath clipPathUnits="userSpaceOnUse" id="clipPath461-41">
      <path style="fill:#000000;stroke-width:0.264583" d="m 54.000001,92.000002 h -6.000002 v -10 l 6.000002,-6"
        id="path463-5" />
    </clipPath>
    <clipPath clipPathUnits="userSpaceOnUse" id="clipPath556-23">
      <path style="fill:#000000;stroke-width:0.264583" d="m 42.000003,82 -6.000001,6 h -4 l -5.999999,-6"
        id="path558-80" />
    </clipPath>
    <clipPath clipPathUnits="userSpaceOnUse" id="clipPath564-5">
      <path style="fill:#000000;stroke-width:0.264583" d="m 55.999998,63.999998 h 16 L 65.999999,70 h -4"
        id="path566-0" />
    </clipPath>
    <clipPath clipPathUnits="userSpaceOnUse" id="clipPath560-4">
      <path style="fill:#000000;stroke-width:0.264583" d="M 11.999999,95.999998 18,94 V 81.999999 l -6.000001,-2"
        id="path562-6" />
    </clipPath>
    <clipPath clipPathUnits="userSpaceOnUse" id="clipPath489-2">
      <path style="fill:#000000;stroke-width:0.264583"
        d="m 16.000001,0 h 15.999998 v 16 h 16 16 v 15.999999 h -16 -16 -15.999998 -16 V 16 h 16 z" id="path491-23"
        clip-path="none" />
    </clipPath>
    <clipPath clipPathUnits="userSpaceOnUse" id="clipPath1509-7">
      <path style="fill:#000000;stroke:none;stroke-width:0.264583" d="m 122,122 v -8 h 4 v 6" id="path1511-3" />
    </clipPath>
    <clipPath clipPathUnits="userSpaceOnUse" id="clipPath1513-2">
      <path style="fill:#000000;stroke:none;stroke-width:0.264583" d="m 130,114 h -4 v 6 l 4,2" id="path1515-4" />
    </clipPath>
    <clipPath clipPathUnits="userSpaceOnUse" id="clipPath1517-8">
      <path style="fill:#000000;stroke:none;stroke-width:0.264583" d="m 138,146 -2,-4 h -4 l -2,4" id="path1519-47" />
    </clipPath>
    <clipPath clipPathUnits="userSpaceOnUse" id="clipPath1324-6">
      <path style="fill:#000000;stroke:none;stroke-width:0.264583" d="m 138,122 -6,2 v 20 l 6,2" id="path1326-51" />
    </clipPath>
    <clipPath clipPathUnits="userSpaceOnUse" id="clipPath1407-1">
      <path style="fill:#000000;stroke:none;stroke-width:0.264583" d="m 138,122 c 0,0 -2,4 -2,4 h -4 l -2,-4"
        id="path1409-0" />
    </clipPath>
    <clipPath clipPathUnits="userSpaceOnUse" id="clipPath1595-18">
      <path style="fill:#000000;stroke:none;stroke-width:0.264583" d="m 118,122 v -6 l 4,-2 v 8" id="path1597-82" />
    </clipPath>
    <clipPath clipPathUnits="userSpaceOnUse" id="clipPath1591-81">
      <path style="fill:#000000;stroke:none;stroke-width:0.264583" d="m 114,114 4,2 v 6 h -4" id="path1593-9" />
    </clipPath>
    <clipPath clipPathUnits="userSpaceOnUse" id="clipPath1158-4">
      <path style="fill:#000000;stroke:none;stroke-width:0.264583" d="m 122,114 h 8 v 8 h -8" id="path1160-56" />
    </clipPath>
    <clipPath clipPathUnits="userSpaceOnUse" id="clipPath1122-19">
      <path style="fill:#000000;stroke:none;stroke-width:0.264583"
        d="m 106,122 c 8,0 8,0 8,0 v -8 h 8 v 8 h 16 v 24 h -32" id="path1124-9" />
    </clipPath>
    <rect x="430.86615" y="98.267715" width="75.589645" height="19.371418" id="rect3001-2" />
    <clipPath clipPathUnits="userSpaceOnUse" id="clipPath2090-6">
      <path style="fill:#000000;stroke:none;stroke-width:0.264583" d="m 183.99998,210 h -4 v -6 l 4,-2"
        id="path2092-4" />
    </clipPath>
    <clipPath clipPathUnits="userSpaceOnUse" id="clipPath2086-6">
      <path style="fill:#000000;stroke:none;stroke-width:0.264583" d="m 175.99998,210 h 4 v -6 l -4,-2"
        id="path2088-6" />
    </clipPath>
    <clipPath clipPathUnits="userSpaceOnUse" id="clipPath2066-1">
      <path style="fill:#000000;stroke:none;stroke-width:0.264583" d="m 172,210 h 4 v -8 l -4,2" id="path2068-8" />
    </clipPath>
    <clipPath clipPathUnits="userSpaceOnUse" id="clipPath2062-45">
      <path style="fill:#000000;stroke:none;stroke-width:0.264583" d="m 172,210 v -6 l -4,-2 v 8" id="path2064-4" />
    </clipPath>
    <clipPath clipPathUnits="userSpaceOnUse" id="clipPath1978-35">
      <rect style="fill:#000000;stroke:none;stroke-width:0.264583" id="rect1980-7" width="8" height="24" x="183.99998"
        y="210" />
    </clipPath>
    <clipPath clipPathUnits="userSpaceOnUse" id="clipPath2058-8">
      <path style="fill:#000000;stroke:none;stroke-width:0.264583" d="m 191.99998,210 -2,4 h -4 l -2,-4"
        id="path2060-16" />
    </clipPath>
    <clipPath clipPathUnits="userSpaceOnUse" id="clipPath2094-1">
      <path style="fill:#000000;stroke:none;stroke-width:0.264583" d="m 191.99998,234 -2,-4 h -4 l -2,4"
        id="path2096-7" />
    </clipPath>
    <clipPath clipPathUnits="userSpaceOnUse" id="clipPath1827-2">
      <rect style="fill:#000000;stroke:none;stroke-width:0.264583" id="rect1829-6" width="8" height="8" x="175.99998"
        y="202" />
    </clipPath>
    <clipPath clipPathUnits="userSpaceOnUse" id="clipPath2082-37">
      <path style="fill:#000000;stroke:none;stroke-width:0.264583"
        d="m 160,210 h 8 v -8 h 8 v 8 h 8 l 6,2 v 20 l -6,2 h -8 v 8 h -8 v -8 h -8" id="path2084-4" />
    </clipPath>
    <rect x="430.86615" y="98.267715" width="75.589645" height="19.371418" id="rect3001-8-5-6" />
    <clipPath clipPathUnits="userSpaceOnUse" id="clipPath3748-5">
      <rect style="fill:#000000;stroke:#ffffff;stroke-width:0.264583" id="rect3750-34" width="16" height="18" x="168"
        y="158" />
    </clipPath>
    <clipPath clipPathUnits="userSpaceOnUse" id="clipPath3820-7">
      <path style="fill:#000000;stroke:#ffffff;stroke-width:0.264583" d="m 184,158 -8,2 v 14 l 8,2" id="path3822-7" />
    </clipPath>
    <clipPath clipPathUnits="userSpaceOnUse" id="clipPath927-4">
      <path id="path929-7" style="stroke:#ffffff;stroke-width:0.264583" d="m 139,158 h 26 v 18 h -26 z"
        sodipodi:nodetypes="ccccc" />
    </clipPath>
    <rect x="430.86615" y="98.267715" width="69.55217" height="52.760452" id="rect3001-0-4" />
    <rect x="430.86615" y="98.267715" width="69.55217" height="52.760452" id="rect3001-0-9-4" />
  </defs>
  <g inkscape:groupmode="layer" id="layer11" inkscape:label="parts1" transform="translate(4.000003,3.8999994)"
    style="display:inline">
    <g inkscape:groupmode="layer" id="layer18" inkscape:label="pinture">
      <g inkscape:groupmode="layer" id="layer7" inkscape:label="body" transform="translate(20.000002,-34.000001)"
        style="display:inline">
        <image width="128" height="128" preserveAspectRatio="none" style="display:inline;image-rendering:optimizeSpeed"
          xlink:href="skin.png" id="image226-8-0-8-4-9" x="8" y="58" clip-path="url(#clipPath3217)"
          transform="matrix(-1,0,0,-1.0125,91.999998,197.325)" />
        <image width="128" height="128" preserveAspectRatio="none" style="display:inline;image-rendering:optimizeSpeed"
          xlink:href="skin.png" id="image226-8-0-8-5" x="8" y="58" clip-path="url(#clipPath3227)"
          transform="matrix(1.025,0,0,1,2.899995,8.1000006)" />
        <image width="128" height="128" preserveAspectRatio="none" style="display:inline;image-rendering:optimizeSpeed"
          xlink:href="skin.png" id="image226-8-0-6-9" x="-4" y="10" clip-path="url(#clipPath3214)"
          transform="matrix(1,0,0,1.0040816,-24.000005,15.536737)" />
        <image width="128" height="128" preserveAspectRatio="none" style="display:inline;image-rendering:optimizeSpeed"
          xlink:href="skin.png" id="image226-8-0-2-7" x="12" y="136" clip-path="url(#clipPath3640)"
          transform="matrix(1.0125,0,0,1,31.749993,-45.899983)" />
        <image width="128" height="128" preserveAspectRatio="none" style="display:inline;image-rendering:optimizeSpeed"
          xlink:href="skin.png" id="image226-8-0-2-6" x="12" y="136" clip-path="url(#clipPath3297)"
          transform="matrix(1,0,0,1.0083333,-16.000009,-47.566665)" />
        <image width="128" height="128" preserveAspectRatio="none" style="display:inline;image-rendering:optimizeSpeed"
          xlink:href="skin.png" id="image226-8-0-6-7" x="32" y="130" clip-path="url(#clipPath3220)"
          transform="matrix(1,0,0,1.0041153,-60.000005,-104.96173)" />
        <image width="128" height="128" preserveAspectRatio="none" style="display:inline;image-rendering:optimizeSpeed"
          xlink:href="skin.png" id="image226-8-0-2-4" x="12" y="136" clip-path="url(#clipPath3436)"
          transform="matrix(1.0125,0,0,1.0041667,-0.550006,-46.733331)" />
        <image width="128" height="128" preserveAspectRatio="none" style="display:inline;image-rendering:optimizeSpeed"
          xlink:href="skin.png" id="image226-8-0-8" x="8" y="58" clip-path="url(#clipPath3233)"
          transform="translate(-44.000005,8.1000016)" />
      </g>
      <g inkscape:label="head" inkscape:groupmode="layer" id="layer1" style="display:inline">
        <image width="128" height="128" preserveAspectRatio="none" style="image-rendering:optimizeSpeed"
          xlink:href="skin.png" id="image226-9" x="-2" y="56" clip-path="url(#clipPath590)"
          transform="matrix(-1,0,0,-1.0062501,69.999997,112.45)" />
        <image width="128" height="128" preserveAspectRatio="none" style="image-rendering:optimizeSpeed"
          xlink:href="skin.png" id="image226-3" x="16" y="86" clip-path="url(#clipPath453)"
          transform="matrix(0,1.0166667,-1,0,142,-24.599998)" />
        <image width="128" height="128" preserveAspectRatio="none" style="image-rendering:optimizeSpeed"
          xlink:href="skin.png" id="image226-3-8" x="16" y="86" clip-path="url(#clipPath449)"
          transform="matrix(0,-1.0166667,1,0,-78.000006,56.733333)" />
        <image width="128" height="128" preserveAspectRatio="none" style="image-rendering:optimizeSpeed"
          xlink:href="skin.png" id="image226-0" x="6" y="76" clip-path="url(#clipPath457)"
          transform="matrix(0,1.0166663,-1,0,132,1.3666815)" />
        <image width="128" height="128" preserveAspectRatio="none" style="image-rendering:optimizeSpeed"
          xlink:href="skin.png" id="image226-0-2" x="6" y="76" clip-path="url(#clipPath461)"
          transform="matrix(0,-1.0166663,1,0,-68.000007,94.899984)" />
        <image width="128" height="128" preserveAspectRatio="none" style="image-rendering:optimizeSpeed"
          xlink:href="skin.png" id="image226-5" x="10" y="82" clip-path="url(#clipPath556)"
          transform="matrix(-1,0,0,-1.0166667,97.999997,107.56667)" />
        <image width="128" height="128" preserveAspectRatio="none" style="image-rendering:optimizeSpeed"
          xlink:href="skin.png" id="image226-01" x="24" y="64" clip-path="url(#clipPath564)"
          transform="matrix(1,0,0,1.0166667,-4.6e-6,-25.066666)" />
        <image width="128" height="128" preserveAspectRatio="none" style="image-rendering:optimizeSpeed"
          xlink:href="skin.png" id="image226-2" x="12" y="64" clip-path="url(#clipPath560)"
          transform="matrix(1.0166667,0,0,1,59.699995,-55.899998)" />
        <image width="128" height="128" preserveAspectRatio="none" style="image-rendering:optimizeSpeed"
          xlink:href="skin.png" id="image226-7" x="0" y="0" clip-path="url(#clipPath489)"
          transform="translate(7.999996,8.1000006)" />
      </g>
      <g inkscape:groupmode="layer" id="layer3" inkscape:label="right_arm" transform="translate(112,-72)"
        style="display:inline;stroke:#ffffff">
        <image width="128" height="128" preserveAspectRatio="none" style="stroke:#ffffff;image-rendering:optimizeSpeed"
          xlink:href="skin.png" id="image226-8-8-7-3-9" x="26" y="82" clip-path="url(#clipPath1509)"
          transform="rotate(90,73.999982,67.999987)" />
        <image width="128" height="128" preserveAspectRatio="none" style="stroke:#ffffff;image-rendering:optimizeSpeed"
          xlink:href="skin.png" id="image226-8-8-7-3" x="26" y="82" clip-path="url(#clipPath1513)"
          transform="rotate(-90,83.999985,162)" />
        <image width="128" height="128" preserveAspectRatio="none" style="stroke:#ffffff;image-rendering:optimizeSpeed"
          xlink:href="skin.png" id="image226-8-8-2" x="26" y="82" clip-path="url(#clipPath1517)"
          transform="rotate(180,82.999995,135.00001)" />
        <image width="128" height="128" preserveAspectRatio="none" style="stroke:#ffffff;image-rendering:optimizeSpeed"
          xlink:href="skin.png" id="image226-8-8-84" x="26" y="82" clip-path="url(#clipPath1324)"
          transform="matrix(1.0045455,0,0,1,-118.46772,-29.867709)" />
        <image width="128" height="128" preserveAspectRatio="none" style="stroke:#ffffff;image-rendering:optimizeSpeed"
          xlink:href="skin.png" id="image226-8-8-2-8" x="26" y="82" clip-path="url(#clipPath1407)"
          transform="matrix(-1,0,0,-1.0250002,165.99999,209.25003)" />
        <image width="128" height="128" preserveAspectRatio="none" style="stroke:#ffffff;image-rendering:optimizeSpeed"
          xlink:href="skin.png" id="image226-8-8-8-6" x="26" y="82" clip-path="url(#clipPath1595)"
          transform="matrix(0,1.0249997,-1,0,157.99999,-32.849969)" />
        <image width="128" height="128" preserveAspectRatio="none" style="stroke:#ffffff;image-rendering:optimizeSpeed"
          xlink:href="skin.png" id="image226-8-8-8-6-2" x="26" y="82" clip-path="url(#clipPath1591)"
          transform="matrix(0,-1.025,1,0,-94.000027,209.04999)" />
        <image width="128" height="128" preserveAspectRatio="none"
          style="display:inline;stroke:#ffffff;image-rendering:optimizeSpeed" xlink:href="skin.png" id="image226-8-8-7"
          x="26" y="82" clip-path="url(#clipPath1158)" transform="matrix(1,0,0,1.0125,-94.000027,0.57500055)" />
        <image width="128" height="128" preserveAspectRatio="none"
          style="display:inline;stroke:#ffffff;image-rendering:optimizeSpeed" xlink:href="skin.png" id="image226-8-8-8"
          x="26" y="82" clip-path="url(#clipPath1122)" transform="translate(-86.000029,-29.9)" />
        <g aria-label="右腕 接着面" transform="matrix(0,-0.26458333,0.26458333,0,10.507274,223.46252)" id="text2999"
          style="white-space:pre;shape-inside:url(#rect3001);display:inline;stroke-width:1.13386;paint-order:stroke fill markers">
          <path
            d="m 436.63086,100.56445 q 0.23437,0.0469 0.32812,0.14063 0.23438,0.1875 -0.1875,0.375 -0.14062,0.46875 -0.32812,1.07812 h 5.57812 v 1.21875 h -5.90625 q -0.32812,0.89063 -0.79687,1.73438 h 5.67187 v 5.53125 h -1.3125 v -0.46875 h -4.26562 v 0.65625 h -1.3125 v -3.9375 q -0.89063,0.98437 -2.10938,1.92187 l -0.84375,-1.17187 q 0.51563,-0.32813 0.9375,-0.70313 1.73438,-1.40625 2.57813,-3.5625 h -3.09375 v -1.21875 h 3.46875 q 0.28125,-0.79687 0.46875,-1.875 z m -1.21875,5.76563 v 2.625 h 4.26562 v -2.625 z"
            style="font-size:12px;font-family:HGPGothicE;-inkscape-font-specification:'HGPGothicE, Normal'"
            id="path1843" />
          <path
            d="m 451.06836,100.14258 q 0.5625,0.0469 0.1875,0.375 v 1.17187 h 3 v 2.01563 h -1.125 v -0.89063 h -4.78125 v 0.375 l 0.89062,0.0937 q 0.23438,0.0469 0.32813,0.0937 0.0937,0.0937 0.0469,0.1875 -0.0469,0.0469 -0.1875,0.0937 -0.0469,0.14063 -0.0937,0.28125 h 1.3125 v 1.5 q -0.0469,1.03125 -0.46875,2.48438 -0.28125,0.84375 -0.84375,1.6875 -0.65625,0.98437 -1.78125,1.73437 l -0.51562,-0.79687 q -0.0469,0.23437 -0.14063,0.375 -0.0937,0.1875 -0.375,0.1875 h -1.125 l -0.14062,-1.125 h 0.32812 q 0.0469,0 0.0937,0 0.0937,0 0.14063,-0.0937 0.0469,-0.0469 0.0469,-0.23438 v -2.34375 h -0.79687 q 0,0.60938 -0.0469,1.17188 -0.14062,1.6875 -0.84375,2.76562 l -0.98437,-0.84375 q 0.65625,-0.89062 0.65625,-2.67187 v -6.98438 h 3.23437 v 6.04688 q 0.42188,-0.60938 0.79688,-1.54688 0.28125,-0.75 0.32812,-1.26562 h -0.98437 v -2.29688 h 2.71875 v -1.54687 z m -6,1.73437 v 1.54688 h 0.79687 v -1.54688 z m 8.8125,6 q 0,0.23438 -0.0937,0.375 -0.1875,0.28125 -0.60938,0.28125 h -1.07812 l -0.0937,-1.03125 h 0.51562 q 0.14063,0 0.1875,-0.0469 0.0469,-0.0469 0.0469,-0.23438 v -2.29687 h -0.84375 v 4.64062 q 0,0.1875 0.0469,0.23438 0.0469,0.0469 0.1875,0.0469 h 0.75 q 0.1875,0 0.23438,-0.0937 0.0469,-0.0937 0.0937,-0.375 l 0.0937,-0.60937 1.17187,0.32812 -0.1875,0.98438 q -0.0469,0.1875 -0.0937,0.32812 -0.28125,0.5625 -0.79687,0.5625 h -1.92188 q -0.28125,0 -0.46875,-0.14062 -0.23437,-0.1875 -0.23437,-0.51563 v -6.51562 h 3.09375 z m -8.8125,-3.32812 v 1.64062 h 0.79687 v -1.64062 z m 4.07812,0.51562 q -0.1875,0.60938 -0.42187,1.17188 l 0.51562,0.375 q 0.23438,-0.75 0.23438,-1.54688 z m -0.9375,2.20313 q -0.0937,0.1875 -0.23437,0.375 -0.1875,0.28125 -0.46875,0.51562 l -0.42188,-0.65625 v 2.53125 q 0.32813,-0.1875 0.65625,-0.46875 0.84375,-0.75 1.21875,-1.6875 -0.46875,-0.46875 -0.75,-0.60937 z"
            style="font-size:12px;font-family:HGPGothicE;-inkscape-font-specification:'HGPGothicE, Normal'"
            id="path1845" />
          <path
            d="m 461.75586,100.14258 q 0.5625,0.0469 0.1875,0.375 v 1.73437 h 1.26562 v 1.21875 h -1.26562 v 2.0625 l 0.89062,-0.28125 v -1.07812 h 1.73438 l -0.32813,-1.5 h -0.75 v -1.21875 h 2.25 v -1.3125 h 1.125 q 0.5625,0.0469 0.1875,0.375 v 0.9375 h 2.57813 v 1.21875 h -0.98438 l -0.375,1.5 h 2.01563 v 1.125 h -3.375 l -0.42188,0.84375 h 3.42188 v 1.21875 h -1.21875 q -0.14063,0.46875 -0.46875,1.21875 -0.14063,0.28125 -0.23438,0.375 1.07813,0.42187 2.10938,1.125 l -0.75,1.07812 q -1.03125,-0.60937 -2.29688,-1.21875 -1.59375,1.125 -3.75,1.40625 l -0.51562,-1.26562 q 0.42187,-0.0469 0.79687,-0.0937 1.17188,-0.14063 2.20313,-0.60938 -0.46875,-0.23437 -0.79688,-0.32812 l -0.23437,0.42187 -1.17188,-0.5625 q 0.46875,-0.75 0.89063,-1.54687 h -1.26563 V 106.377 l -1.26562,0.46875 v 3.46875 q 0,0.1875 -0.0469,0.375 -0.1875,0.60938 -0.89062,0.60938 h -1.03125 l -0.14063,-1.3125 h 0.51563 q 0.1875,0 0.23437,-0.0937 0.0469,-0.0937 0.0469,-0.23438 v -2.39062 l -0.65625,0.23437 q -0.0469,0.1875 -0.0937,0.23438 -0.0469,0.0469 -0.14063,0 -0.0937,-0.0469 -0.1875,-0.28125 l -0.375,-1.125 1.45313,-0.42188 v -2.4375 h -1.17188 v -1.21875 h 1.17188 v -2.10937 z m 3.84375,2.53125 0.32812,1.5 h 0.98438 l 0.375,-1.5 z m -2.71875,2.625 0.32812,0.84375 h 1.875 l 0.42188,-0.84375 z m 2.625,2.8125 q 0.60937,0.1875 1.21875,0.375 0.23437,-0.23438 0.46875,-0.70313 0.0937,-0.23437 0.14062,-0.42187 h -1.40625 z"
            style="font-size:12px;font-family:HGPGothicE;-inkscape-font-specification:'HGPGothicE, Normal'"
            id="path1847" />
          <path
            d="m 480.74023,105.81445 v 5.34375 h -1.3125 v -0.375 h -3.375 v 0.51563 h -1.21875 v -5.48438 z m -1.3125,-5.39062 q 0.23438,0.0937 0.28125,0.1875 0.0937,0.14062 0,0.1875 -0.0469,0.0469 -0.1875,0.0469 -0.23437,0.375 -0.42187,0.60938 h 2.57812 v 1.125 h -4.21875 v 0.28125 h 3.32813 v 1.125 h -3.32813 v 0.375 h 4.82813 v 1.125 h -7.5 q 0.0469,3.04687 -2.625,5.15625 l -0.79688,-1.03125 q 0.75,-0.46875 1.3125,-1.26563 0.89063,-1.3125 0.89063,-2.85937 h -2.10938 v -1.125 h 4.6875 v -0.375 h -3.1875 v -1.125 h 3.1875 v -0.28125 h -4.125 v -1.125 h 2.20313 q 0,-0.0937 -0.0937,-0.1875 -0.23438,-0.28125 -0.42188,-0.46875 l 1.125,-0.65625 q 0.42188,0.46875 0.98438,1.3125 h 1.78125 q 0.51562,-0.5625 0.84375,-1.45313 z m -3.375,6.23437 v 0.42188 h 3.375 v -0.42188 z m 0,1.35938 v 0.42187 h 3.375 v -0.42187 z m 0,1.35937 v 0.46875 h 3.375 v -0.46875 z"
            style="font-size:12px;font-family:HGPGothicE;-inkscape-font-specification:'HGPGothicE, Normal'"
            id="path1849" />
          <path
            d="m 494.09961,102.1582 h -4.35938 l -0.375,1.21875 h 4.17188 v 7.54688 h -1.3125 v -0.42188 h -6.79688 v 0.65625 h -1.3125 v -7.78125 h 3.89063 l 0.23437,-1.21875 h -4.6875 v -1.21875 h 10.54688 z m -8.67188,2.4375 v 4.6875 h 1.26563 v -4.6875 z m 2.57813,0 v 0.79688 h 1.64062 v -0.79688 z m 2.95312,0 v 4.6875 h 1.26563 v -4.6875 z m -2.95312,1.92188 v 0.79687 h 1.64062 v -0.79687 z m 0,1.92187 v 0.84375 h 1.64062 v -0.84375 z"
            style="font-size:12px;font-family:HGPGothicE;-inkscape-font-specification:'HGPGothicE, Normal'"
            id="path1851" />
        </g>
      </g>
      <g inkscape:groupmode="layer" id="layer5" inkscape:label="left_arm" transform="translate(23.999999,-72)"
        style="display:inline">
        <image width="128" height="128" preserveAspectRatio="none" style="display:inline;image-rendering:optimizeSpeed"
          xlink:href="skin.png" id="image226-8-2-0-5" x="96" y="106" clip-path="url(#clipPath2090)"
          transform="matrix(0,-1.025,1,0,-134.00001,304.59998)" />
        <image width="128" height="128" preserveAspectRatio="none" style="display:inline;image-rendering:optimizeSpeed"
          xlink:href="skin.png" id="image226-8-2-0-3" x="96" y="106" clip-path="url(#clipPath2086)"
          transform="matrix(0,1.025,-1,0,293.99999,-64.399976)" />
        <image width="128" height="128" preserveAspectRatio="none" style="display:inline;image-rendering:optimizeSpeed"
          xlink:href="skin.png" id="image226-8-2-0-0" x="96" y="106" clip-path="url(#clipPath2066)"
          transform="matrix(0,1.025,-1,0,293.99999,-88.199997)" />
        <image width="128" height="128" preserveAspectRatio="none" style="display:inline;image-rendering:optimizeSpeed"
          xlink:href="skin.png" id="image226-8-2-0-0-3" x="96" y="106" clip-path="url(#clipPath2062)"
          transform="matrix(0,-1.025,1,0,-134.00001,264.4)" />
        <image width="128" height="128" preserveAspectRatio="none" style="display:inline;image-rendering:optimizeSpeed"
          xlink:href="skin.png" id="image226-8-2-5" x="96" y="106" clip-path="url(#clipPath1978)"
          transform="matrix(1.0125,0,0,1,-126.29999,-117.9)" />
        <image width="128" height="128" preserveAspectRatio="none" style="display:inline;image-rendering:optimizeSpeed"
          xlink:href="skin.png" id="image226-8-2-5-6" x="96" y="106" clip-path="url(#clipPath2058)"
          transform="matrix(-1,0,0,-1.025,267.99997,299.45)" inkscape:transform-center-x="37.9204"
          inkscape:transform-center-y="-38.137665" />
        <image width="128" height="128" preserveAspectRatio="none" style="display:inline;image-rendering:optimizeSpeed"
          xlink:href="skin.png" id="image226-8-2-5-6-2" x="96" y="106" clip-path="url(#clipPath2094)"
          transform="matrix(-1,0,0,-1.025,267.99997,363.85)" inkscape:transform-center-x="37.9204"
          inkscape:transform-center-y="-38.137665" />
        <image width="128" height="128" preserveAspectRatio="none" style="display:inline;image-rendering:optimizeSpeed"
          xlink:href="skin.png" id="image226-8-2-0" x="96" y="106" clip-path="url(#clipPath1827)"
          transform="matrix(1,0,0,1.0125,-99.999987,-88.524997)" />
        <image width="128" height="128" preserveAspectRatio="none" style="display:inline;image-rendering:optimizeSpeed"
          xlink:href="skin.png" id="image226-8-2-3" x="96" y="106" clip-path="url(#clipPath2082)"
          transform="translate(-92.000009,-117.9)" />
        <g aria-label="左腕 接着面" transform="matrix(0,0.26458333,-0.26458333,0,101.12521,-21.199792)" id="text2999-5"
          style="white-space:pre;shape-inside:url(#rect3001-8-5);display:inline;stroke:#ffffff;stroke-width:1.13386;paint-order:stroke fill markers">
          <path
            d="m 436.67773,100.4707 q 0.28125,0.0469 0.32813,0.23438 0,0.0937 -0.0469,0.14062 -0.0469,0.0937 -0.1875,0.0937 -0.0937,0.60938 -0.1875,1.125 h 5.39063 v 1.40625 h -5.57813 q -0.23437,0.98438 -0.42187,1.64063 h 5.10937 v 1.40625 h -2.67187 v 2.76562 h 3.65625 v 1.40625 h -8.57813 v -1.40625 h 3.51563 v -2.76562 h -1.64063 q -0.32812,0.75 -1.125,1.6875 -0.9375,1.07812 -1.78125,1.78125 l -0.89062,-1.17188 q 0.79687,-0.60937 1.45312,-1.35937 1.45313,-1.5 1.92188,-3.98438 h -3.14063 v -1.40625 h 3.42188 q 0.1875,-1.03125 0.1875,-1.82812 z"
            style="font-size:12px;font-family:HGPGothicE;-inkscape-font-specification:'HGPGothicE, Normal'"
            id="path1832" />
          <path
            d="m 451.06836,100.14258 q 0.5625,0.0469 0.1875,0.375 v 1.17187 h 3 v 2.01563 h -1.125 v -0.89063 h -4.78125 v 0.375 l 0.89062,0.0937 q 0.23438,0.0469 0.32813,0.0937 0.0937,0.0937 0.0469,0.1875 -0.0469,0.0469 -0.1875,0.0937 -0.0469,0.14063 -0.0937,0.28125 h 1.3125 v 1.5 q -0.0469,1.03125 -0.46875,2.48438 -0.28125,0.84375 -0.84375,1.6875 -0.65625,0.98437 -1.78125,1.73437 l -0.51562,-0.79687 q -0.0469,0.23437 -0.14063,0.375 -0.0937,0.1875 -0.375,0.1875 h -1.125 l -0.14062,-1.125 h 0.32812 q 0.0469,0 0.0937,0 0.0937,0 0.14063,-0.0937 0.0469,-0.0469 0.0469,-0.23438 v -2.34375 h -0.79687 q 0,0.60938 -0.0469,1.17188 -0.14062,1.6875 -0.84375,2.76562 l -0.98437,-0.84375 q 0.65625,-0.89062 0.65625,-2.67187 v -6.98438 h 3.23437 v 6.04688 q 0.42188,-0.60938 0.79688,-1.54688 0.28125,-0.75 0.32812,-1.26562 h -0.98437 v -2.29688 h 2.71875 v -1.54687 z m -6,1.73437 v 1.54688 h 0.79687 v -1.54688 z m 8.8125,6 q 0,0.23438 -0.0937,0.375 -0.1875,0.28125 -0.60938,0.28125 h -1.07812 l -0.0937,-1.03125 h 0.51562 q 0.14063,0 0.1875,-0.0469 0.0469,-0.0469 0.0469,-0.23438 v -2.29687 h -0.84375 v 4.64062 q 0,0.1875 0.0469,0.23438 0.0469,0.0469 0.1875,0.0469 h 0.75 q 0.1875,0 0.23438,-0.0937 0.0469,-0.0937 0.0937,-0.375 l 0.0937,-0.60937 1.17187,0.32812 -0.1875,0.98438 q -0.0469,0.1875 -0.0937,0.32812 -0.28125,0.5625 -0.79687,0.5625 h -1.92188 q -0.28125,0 -0.46875,-0.14062 -0.23437,-0.1875 -0.23437,-0.51563 v -6.51562 h 3.09375 z m -8.8125,-3.32812 v 1.64062 h 0.79687 v -1.64062 z m 4.07812,0.51562 q -0.1875,0.60938 -0.42187,1.17188 l 0.51562,0.375 q 0.23438,-0.75 0.23438,-1.54688 z m -0.9375,2.20313 q -0.0937,0.1875 -0.23437,0.375 -0.1875,0.28125 -0.46875,0.51562 l -0.42188,-0.65625 v 2.53125 q 0.32813,-0.1875 0.65625,-0.46875 0.84375,-0.75 1.21875,-1.6875 -0.46875,-0.46875 -0.75,-0.60937 z"
            style="font-size:12px;font-family:HGPGothicE;-inkscape-font-specification:'HGPGothicE, Normal'"
            id="path1834" />
          <path
            d="m 461.75586,100.14258 q 0.5625,0.0469 0.1875,0.375 v 1.73437 h 1.26562 v 1.21875 h -1.26562 v 2.0625 l 0.89062,-0.28125 v -1.07812 h 1.73438 l -0.32813,-1.5 h -0.75 v -1.21875 h 2.25 v -1.3125 h 1.125 q 0.5625,0.0469 0.1875,0.375 v 0.9375 h 2.57813 v 1.21875 h -0.98438 l -0.375,1.5 h 2.01563 v 1.125 h -3.375 l -0.42188,0.84375 h 3.42188 v 1.21875 h -1.21875 q -0.14063,0.46875 -0.46875,1.21875 -0.14063,0.28125 -0.23438,0.375 1.07813,0.42187 2.10938,1.125 l -0.75,1.07812 q -1.03125,-0.60937 -2.29688,-1.21875 -1.59375,1.125 -3.75,1.40625 l -0.51562,-1.26562 q 0.42187,-0.0469 0.79687,-0.0937 1.17188,-0.14063 2.20313,-0.60938 -0.46875,-0.23437 -0.79688,-0.32812 l -0.23437,0.42187 -1.17188,-0.5625 q 0.46875,-0.75 0.89063,-1.54687 h -1.26563 V 106.377 l -1.26562,0.46875 v 3.46875 q 0,0.1875 -0.0469,0.375 -0.1875,0.60938 -0.89062,0.60938 h -1.03125 l -0.14063,-1.3125 h 0.51563 q 0.1875,0 0.23437,-0.0937 0.0469,-0.0937 0.0469,-0.23438 v -2.39062 l -0.65625,0.23437 q -0.0469,0.1875 -0.0937,0.23438 -0.0469,0.0469 -0.14063,0 -0.0937,-0.0469 -0.1875,-0.28125 l -0.375,-1.125 1.45313,-0.42188 v -2.4375 h -1.17188 v -1.21875 h 1.17188 v -2.10937 z m 3.84375,2.53125 0.32812,1.5 h 0.98438 l 0.375,-1.5 z m -2.71875,2.625 0.32812,0.84375 h 1.875 l 0.42188,-0.84375 z m 2.625,2.8125 q 0.60937,0.1875 1.21875,0.375 0.23437,-0.23438 0.46875,-0.70313 0.0937,-0.23437 0.14062,-0.42187 h -1.40625 z"
            style="font-size:12px;font-family:HGPGothicE;-inkscape-font-specification:'HGPGothicE, Normal'"
            id="path1836" />
          <path
            d="m 480.74023,105.81445 v 5.34375 h -1.3125 v -0.375 h -3.375 v 0.51563 h -1.21875 v -5.48438 z m -1.3125,-5.39062 q 0.23438,0.0937 0.28125,0.1875 0.0937,0.14062 0,0.1875 -0.0469,0.0469 -0.1875,0.0469 -0.23437,0.375 -0.42187,0.60938 h 2.57812 v 1.125 h -4.21875 v 0.28125 h 3.32813 v 1.125 h -3.32813 v 0.375 h 4.82813 v 1.125 h -7.5 q 0.0469,3.04687 -2.625,5.15625 l -0.79688,-1.03125 q 0.75,-0.46875 1.3125,-1.26563 0.89063,-1.3125 0.89063,-2.85937 h -2.10938 v -1.125 h 4.6875 v -0.375 h -3.1875 v -1.125 h 3.1875 v -0.28125 h -4.125 v -1.125 h 2.20313 q 0,-0.0937 -0.0937,-0.1875 -0.23438,-0.28125 -0.42188,-0.46875 l 1.125,-0.65625 q 0.42188,0.46875 0.98438,1.3125 h 1.78125 q 0.51562,-0.5625 0.84375,-1.45313 z m -3.375,6.23437 v 0.42188 h 3.375 v -0.42188 z m 0,1.35938 v 0.42187 h 3.375 v -0.42187 z m 0,1.35937 v 0.46875 h 3.375 v -0.46875 z"
            style="font-size:12px;font-family:HGPGothicE;-inkscape-font-specification:'HGPGothicE, Normal'"
            id="path1838" />
          <path
            d="m 494.09961,102.1582 h -4.35938 l -0.375,1.21875 h 4.17188 v 7.54688 h -1.3125 v -0.42188 h -6.79688 v 0.65625 h -1.3125 v -7.78125 h 3.89063 l 0.23437,-1.21875 h -4.6875 v -1.21875 h 10.54688 z m -8.67188,2.4375 v 4.6875 h 1.26563 v -4.6875 z m 2.57813,0 v 0.79688 h 1.64062 v -0.79688 z m 2.95312,0 v 4.6875 h 1.26563 v -4.6875 z m -2.95312,1.92188 v 0.79687 h 1.64062 v -0.79687 z m 0,1.92187 v 0.84375 h 1.64062 v -0.84375 z"
            style="font-size:12px;font-family:HGPGothicE;-inkscape-font-specification:'HGPGothicE, Normal'"
            id="path1840" />
        </g>
      </g>
      <g inkscape:groupmode="layer" id="layer9" inkscape:label="inner" transform="rotate(-90,56.000001,124)"
        style="display:inline">
        <image width="128" height="128" preserveAspectRatio="none" style="display:inline;image-rendering:optimizeSpeed"
          xlink:href="skin.png" id="image226-8-9-6" x="104" y="112" clip-path="url(#clipPath3748)"
          transform="matrix(1.00625,0,0,1,-69.25,-10.000004)" />
        <image width="128" height="128" preserveAspectRatio="none" style="display:inline;image-rendering:optimizeSpeed"
          xlink:href="skin.png" id="image226-8-9-6-5" x="104" y="112" clip-path="url(#clipPath3820)"
          transform="matrix(1.0125,0,0,1,-112.4,-9.999998)" />
        <image width="128" height="128" preserveAspectRatio="none" style="display:inline;image-rendering:optimizeSpeed"
          xlink:href="skin.png" id="image226-8-9-0" x="104" y="112" clip-path="url(#clipPath927)"
          transform="translate(-65.099997,-9.999998)" />
        <path style="display:inline;fill:none;stroke:#000000;stroke-width:0.15;stroke-dasharray:none"
          d="m 99.900003,166.00001 1.999997,18 h 12 l 2,-18" id="path3864" />
        <g aria-label="前
のりしろ" transform="matrix(0.26458333,0,0,0.26458333,-36.000672,126.87465)" id="text2999-8"
          style="text-align:center;white-space:pre;shape-inside:url(#rect3001-0);display:inline;stroke:#ffffff;stroke-width:1.13386;paint-order:stroke fill markers">
          <path
            d="m 464.23535,105.5332 v -0.9375 h -2.0625 v 0.9375 z m 0,0.89063 h -2.0625 v 0.98437 h 2.0625 z m -0.14062,3.70312 q 0.14062,0 0.14062,-0.14062 v -1.6875 h -2.0625 v 2.8125 h -0.9375 v -7.40625 h 3.9375 v 6.51562 q 0,0.79688 -0.75,0.79688 h -0.9375 l -0.23437,-0.89063 z m 2.4375,-6.1875 h 0.9375 v 5.39063 h -0.9375 z m 2.39062,6.14063 q 0.14063,0 0.14063,-0.14063 v -6.375 h 0.89062 q 0.46875,0.0937 0.0469,0.375 v 6.23438 q 0,0.79687 -0.75,0.79687 h -1.03125 l -0.1875,-0.89062 z m -0.79687,-9.14063 q -0.28125,0.51563 -0.70313,1.17188 h 3.5625 v 0.89062 H 460.2041 v -0.89062 h 3.1875 q -0.28125,-0.65625 -0.65625,-1.125 l 0.84375,-0.46875 q 0.51563,0.51562 1.03125,1.59375 h 1.73438 q 0.51562,-0.89063 0.84375,-1.78125 l 1.07812,0.375 q 0.1875,0.1875 -0.14062,0.23437 z"
            id="path1032" />
          <path
            d="m 448.11035,119.33524 q -0.79687,4.6875 -1.92187,5.8125 -0.60938,0.60937 -1.26563,0.60937 -0.75,0 -1.17187,-0.42187 -1.125,-1.125 -1.125,-2.8125 0,-2.0625 1.45312,-3.51563 1.59375,-1.59375 3.89063,-1.59375 2.0625,0 3.23437,1.17188 1.3125,1.3125 1.3125,3.09375 0,1.92187 -1.21875,3.14062 -0.79687,0.79688 -2.4375,1.54688 l -0.98437,-0.98438 q 1.64062,-0.51562 2.57812,-1.45312 0.89063,-0.89063 0.89063,-2.15625 0,-1.5 -0.98438,-2.48438 -0.98437,-0.98437 -3.09375,-0.89062 l 0.84375,0.42187 q 0.5625,0.23438 0,0.51563 z m -1.07812,-0.89063 q -1.21875,0.28125 -2.10938,1.17188 -1.21875,1.21875 -1.21875,3 0,1.07812 0.70313,1.78125 0.14062,0.14062 0.42187,0.14062 0.28125,0 0.60938,-0.32812 1.07812,-1.07813 1.59375,-5.76563 z"
            id="path1034" />
          <path
            d="m 461.75098,121.58524 q 0,-3.1875 -0.1875,-4.92188 h 0.9375 q 0.51562,0.0469 0.0937,0.375 0.14062,1.5 0.14062,4.59375 0,3.51563 -3.32812,5.29688 l -0.79688,-0.79688 q 3.14063,-1.5 3.14063,-4.54687 z m -3.1875,1.54687 q -0.42188,0.32813 -0.9375,0.32813 -0.32813,0 -0.60938,-0.28125 -0.32812,-0.32813 -0.32812,-2.8125 0,-1.875 0.1875,-3.42188 h 1.03125 q 0.375,0.14063 0,0.32813 -0.23438,1.125 -0.23438,3.09375 0,2.01562 0.1875,2.01562 0.14063,0 0.375,-0.1875 0.32813,-0.28125 1.07813,-1.26562 l 0.70312,0.70312 q -0.79687,0.98438 -1.45312,1.5 z"
            id="path1036" />
          <path
            d="m 476.23535,124.25711 q -2.01562,2.20313 -4.35937,2.20313 -1.6875,0 -2.48438,-0.79688 -0.60937,-0.60937 -0.60937,-2.34375 v -6.28125 h 0.98437 q 0.42188,0.0937 0.0937,0.375 v 5.90625 q 0,1.17188 0.42188,1.59375 0.51562,0.51563 1.54687,0.51563 1.82813,0 3.70313,-2.0625 z"
            id="path1038" />
          <path
            d="m 482.1416,125.52274 q 3.51563,0.0469 4.40625,-0.84375 0.51563,-0.51563 0.51563,-1.3125 0,-0.89063 -0.46875,-1.35938 -0.51563,-0.51562 -1.73438,-0.51562 -2.85937,0 -4.54687,2.48437 l -0.79688,-0.79687 q 3.04688,-3 4.40625,-5.25 -1.54687,0.23437 -3.09375,0.42187 l -0.32812,-1.07812 q 1.6875,0 4.07812,-0.32813 l 0.32813,-0.14062 0.5625,0.51562 q 0.42187,0.42188 -0.14063,0.51563 -1.26562,1.64062 -2.48437,3.1875 1.35937,-0.375 2.20312,-0.375 1.5,0 2.29688,0.79687 0.70312,0.70313 0.70312,1.92188 0,1.21875 -0.75,1.96875 -1.125,1.125 -4.6875,1.17187 z"
            id="path1040" />
        </g>
        <g aria-label="後" transform="matrix(0.26458333,0,0,0.26458333,-15.401467,126.87465)" id="text2999-8-5"
          style="text-align:center;white-space:pre;shape-inside:url(#rect3001-0-9);display:inline;stroke:#ffffff;stroke-width:1.13386;paint-order:stroke fill markers">
          <path
            d="m 467.18848,109.56445 q -1.45313,1.03125 -3.89063,1.5 l -0.32812,-0.98437 q 2.25,-0.28125 3.51562,-1.17188 -0.51562,-0.60937 -0.89062,-1.35937 -0.65625,0.9375 -1.82813,1.6875 l -0.5625,-0.75 q 1.82813,-1.17188 2.39063,-2.76563 l -1.78125,0.0937 q -0.0469,0.32813 -0.23438,0.14063 l -0.32812,-1.07813 1.875,-0.0469 0.89062,-0.75 q -1.07812,-0.75 -1.96875,-1.17188 l 0.51563,-0.79687 0.46875,0.23437 q 0.79687,-0.98437 1.40625,-2.15625 l 0.79687,0.46875 q 0.42188,0.23438 -0.0469,0.32813 -0.60938,0.84375 -1.45313,1.82812 0.46875,0.28125 0.89063,0.5625 0.84375,-0.79687 1.73437,-2.0625 l 0.84375,0.51563 q 0.1875,0.1875 -0.14062,0.23437 -0.89063,1.21875 -2.71875,2.76563 l 2.8125,-0.1875 q -0.375,-0.42188 -0.75,-0.79688 l 0.65625,-0.5625 q 1.07812,0.79688 1.78125,2.10938 l -0.79688,0.60937 -0.375,-0.65625 -3.04687,0.28125 -0.375,0.79688 h 2.34375 l 0.14062,-0.23438 0.79688,0.46875 q 0.32812,0.14063 -0.1875,0.28125 -0.65625,1.21875 -1.45313,1.96875 1.21875,0.75 3.04688,1.03125 l -0.375,1.07813 q -1.875,-0.42188 -3.375,-1.45313 z m 0,-1.17187 q 0.51562,-0.51563 0.98437,-1.21875 h -1.82812 q 0.28125,0.65625 0.84375,1.21875 z m -4.54688,2.67187 h -0.9375 v -4.82812 q -0.42187,0.42187 -0.98437,0.89062 l -0.42188,-0.9375 q 1.54688,-1.21875 2.53125,-3.14062 l 0.84375,0.5625 q 0.1875,0.1875 -0.14062,0.23437 -0.32813,0.5625 -0.89063,1.3125 z m 0.84375,-9.70312 q -0.84375,1.21875 -2.48437,2.34375 l -0.51563,-0.9375 q 1.40625,-0.9375 2.4375,-2.25 l 0.84375,0.65625 q 0.0469,0.23437 -0.28125,0.1875 z"
            id="path1780" />
        </g>
      </g>
    </g>
    <g inkscape:groupmode="layer" id="layer6" inkscape:label="lines">
      <g inkscape:groupmode="layer" id="layer4" inkscape:label="cut"
        style="display:inline;stroke:#ff0000;stroke-width:0.15;stroke-dasharray:none;stroke-opacity:1">
        <path
          style="fill:none;fill-opacity:0.317016;stroke:#ff0000;stroke-width:0.15;stroke-dasharray:none;stroke-opacity:1;paint-order:stroke fill markers"
          d="m 23.999996,8.1000005 h 16 V 24.1 v -6 h 10.000001 l 5.999998,6 6.000001,-6 h 4 l 5.999999,6 6.000001,2.000001 v 12 l -6.000001,1.999998 -5.999999,6.000002 h -4 l -6.000001,-6.000002 -5.999998,6.000002 H 39.999996 v -6.000002 16 h -16 v -16 6.000002 H 13.999997 L 7.9999969,40.099999 V 24.1 l 6.0000001,-6 h 9.999999 v 6 z"
          id="path2515" />
        <path
          style="fill:none;fill-opacity:0.317016;stroke:#ff0000;stroke-width:0.15;stroke-dasharray:none;stroke-opacity:1;paint-order:stroke fill markers"
          d="m 83.999988,20.100001 h 8.000002 l 1.999999,-4 h 6.000001 v 4 -8 l 2,-3.9999999 h 4 l 2,3.9999999 v 8 -4 h 6 l 2,4 5.99999,2 V 42.100002 L 115.99999,44.1 l -2,4 h -6 v -4 8 l -2,4 h -4 l -2,-4 v -8 4 h -6.000001 l -1.999999,-4 h -8.000002 z"
          id="path2517" />
        <path
          style="fill:none;fill-opacity:0.317016;stroke:#ff0000;stroke-width:0.15;stroke-dasharray:none;stroke-opacity:1;paint-order:stroke fill markers"
          d="m 125.99998,22.100001 6.00001,-2 1.99999,-4 h 6.00001 v 4 -8 l 1.99999,-3.9999999 h 4 l 2.00001,3.9999999 v 8 -4 h 5.99999 l 2.00001,4 h 8 V 44.1 h -8 l -2.00001,4 h -5.99999 v -4 8 l -2.00001,4 h -4 l -1.99999,-4 v -8 4 h -6.00001 l -1.99999,-4 -6.00001,-1.999998 z"
          id="path2519" />
        <path
          style="fill:none;fill-opacity:0.317016;stroke:#ff0000;stroke-width:0.15;stroke-dasharray:none;stroke-opacity:1;paint-order:stroke fill markers"
          d="m 23.999996,64.099999 h 15.999999 v 8 h 8 l 2.000001,-8 h 12 l 2.000001,8 4,2.000001 v 21.999998 h -4 l 8,2 V 118.1 l -8,2 H 15.999996 V 96.099998 h 8 -4 V 74.1 l 4,-2.000001 z"
          id="path2521" sodipodi:nodetypes="cccccccccccccccccccc" />
        <path
          style="fill:none;fill-opacity:0.317016;stroke:#ff0000;stroke-width:0.15;stroke-dasharray:none;stroke-opacity:1;paint-order:stroke fill markers"
          d="m 43.999995,72.099999 v 23.999999 h 4 -8" id="path2523" />
        <path
          style="fill:none;fill-opacity:0.317016;stroke:#ff0000;stroke-width:0.15;stroke-dasharray:none;stroke-opacity:1;paint-order:stroke fill markers"
          d="m 80.000006,64.099996 h 17.99999 l 18.000014,2.000001 v 12 L 97.999996,80.099995 V 106.1 l -1.99999,8 h -14 l -2,-8 z"
          id="path2543" />
      </g>
      <g inkscape:groupmode="layer" id="layer8" inkscape:label="ori">
        <path
          style="fill:none;fill-opacity:1;stroke:#ffffff;stroke-width:0.15;stroke-dasharray:0.15, 1.2;stroke-dashoffset:0;stroke-opacity:1;paint-order:stroke fill markers"
          d="M 7.9999969,24.1 H 71.999995 V 40.099999 H 7.9999969" id="path6268" />
        <path
          style="fill:none;fill-opacity:1;stroke:#ffffff;stroke-width:0.15;stroke-dasharray:0.15, 1.2;stroke-dashoffset:0;stroke-opacity:1;paint-order:stroke fill markers"
          d="M 23.999996,24.1 V 40.099999" id="path6270" />
        <path
          style="fill:none;fill-opacity:1;stroke:#ffffff;stroke-width:0.15;stroke-dasharray:0.15, 1.2;stroke-dashoffset:0;stroke-opacity:1;paint-order:stroke fill markers"
          d="M 39.999996,24.1 V 40.099999" id="path6272" />
        <path
          style="fill:none;fill-opacity:1;stroke:#ffffff;stroke-width:0.15;stroke-dasharray:0.15, 1.2;stroke-dashoffset:0;stroke-opacity:1;paint-order:stroke fill markers"
          d="M 55.999995,24.1 V 40.099999" id="path6274" />
        <path
          style="fill:none;fill-opacity:1;stroke:#ffffff;stroke-width:0.15;stroke-dasharray:0.15, 1.2;stroke-dashoffset:0;stroke-opacity:1;paint-order:stroke fill markers"
          d="M 99.99999,44.1 V 20.100001 h -8 V 44.1 h 24 V 20.100001 h -16" id="path6276" />
        <path
          style="fill:none;fill-opacity:1;stroke:#ffffff;stroke-width:0.15;stroke-dasharray:0.15, 1.2;stroke-dashoffset:0;stroke-opacity:1;paint-order:stroke fill markers"
          d="M 107.99999,44.1 V 20.100001" id="path6278" />
        <path
          style="fill:none;fill-opacity:1;stroke:#ffffff;stroke-width:0.15;stroke-dasharray:0.15, 1.2;stroke-dashoffset:0;stroke-opacity:1;paint-order:stroke fill markers"
          d="m 107.99999,12.100001 h -8" id="path6280" />
        <path
          style="fill:none;fill-opacity:1;stroke:#ffffff;stroke-width:0.15;stroke-dasharray:0.15, 1.2;stroke-dashoffset:0;stroke-opacity:1;paint-order:stroke fill markers"
          d="m 99.99999,52.1 h 8" id="path6282" />
        <path
          style="fill:none;fill-opacity:1;stroke:#ffffff;stroke-width:0.15;stroke-dasharray:0.15, 1.2;stroke-dashoffset:0;stroke-opacity:1;paint-order:stroke fill markers"
          d="M 139.99999,44.1 V 20.100001 h 16 V 44.1 h -24 V 20.100001 h 8" id="path6284" />
        <path
          style="fill:none;fill-opacity:1;stroke:#ffffff;stroke-width:0.15;stroke-dasharray:0.15, 1.2;stroke-dashoffset:0;stroke-opacity:1;paint-order:stroke fill markers"
          d="m 139.99999,12.100001 h 8" id="path6286" />
        <path
          style="fill:none;fill-opacity:1;stroke:#ffffff;stroke-width:0.15;stroke-dasharray:0.15, 1.2;stroke-dashoffset:0;stroke-opacity:1;paint-order:stroke fill markers"
          d="m 139.99999,52.1 h 8" id="path6288" />
        <path
          style="fill:none;fill-opacity:1;stroke:#ffffff;stroke-width:0.15;stroke-dasharray:0.15, 1.2;stroke-dashoffset:0;stroke-opacity:1;paint-order:stroke fill markers"
          d="M 147.99999,44.1 V 20.100001" id="path6290" />
        <path
          style="fill:none;fill-opacity:1;stroke:#ffffff;stroke-width:0.15;stroke-dasharray:0.15, 1.2;stroke-dashoffset:0;stroke-opacity:1;paint-order:stroke fill markers"
          d="M 23.999996,120.1 V 72.099999 H 39.999995 V 120.1" id="path6292" />
        <path
          style="fill:none;fill-opacity:1;stroke:#ffff00;stroke-width:0.15;stroke-dasharray:0.15, 1.2;stroke-dashoffset:0;stroke-opacity:1;paint-order:stroke fill markers"
          d="M 23.999996,96.099998 H 39.999995" id="path6294" />
        <path
          style="fill:none;fill-opacity:1;stroke:#ffffff;stroke-width:0.15;stroke-dasharray:0.15, 1.2;stroke-dashoffset:0;stroke-opacity:1;paint-order:stroke fill markers"
          d="M 47.999995,120.1 V 72.099999 H 63.999997 V 120.1" id="path6296" />
        <path
          style="fill:none;fill-opacity:1;stroke:#ffffff;stroke-width:0.15;stroke-dasharray:0.15, 1.2;stroke-dashoffset:0;stroke-opacity:1;paint-order:stroke fill markers"
          d="M 63.999997,96.099998 H 47.999995" id="path6298" />
        <path
          style="fill:none;fill-opacity:1;stroke:#ffffff;stroke-width:0.15;stroke-dasharray:0.15, 1.2;stroke-dashoffset:0;stroke-opacity:1;paint-order:stroke fill markers"
          d="M 97.999996,80.099995 H 80.000006" id="path6300" />
        <path
          style="fill:none;fill-opacity:1;stroke:#ffffff;stroke-width:0.15;stroke-dasharray:0.15, 1.2;stroke-dashoffset:0;stroke-opacity:1;paint-order:stroke fill markers"
          d="M 97.999996,85.099998 H 80.000006" id="path6302" />
        <path
          style="fill:none;fill-opacity:1;stroke:#ffffff;stroke-width:0.15;stroke-dasharray:0.15, 1.2;stroke-dashoffset:0;stroke-opacity:1;paint-order:stroke fill markers"
          d="M 97.999996,106.1 H 80.000006" id="path6304" />
        <path
          style="fill:none;fill-opacity:1;stroke:#ffffff;stroke-width:0.15;stroke-dasharray:0.15, 1.2;stroke-dashoffset:0;stroke-opacity:1;paint-order:stroke fill markers"
          d="m 80.000006,101.1 h 17.99999" id="path6306" />
      </g>
    </g>
  </g>
  <g inkscape:groupmode="layer" id="layer11-0" inkscape:label="parts1" transform="rotate(180,93.999999,126.05)"
    style="display:inline">
    <g inkscape:groupmode="layer" id="layer18-9" inkscape:label="pinture">
      <g inkscape:groupmode="layer" id="layer7-7" inkscape:label="body" transform="translate(20.000002,-34.000001)"
        style="display:inline">
        <image width="128" height="128" preserveAspectRatio="none" style="display:inline;image-rendering:optimizeSpeed"
          xlink:href="skin.png" id="image226-8-0-8-4-9-0" x="8" y="58" clip-path="url(#clipPath3217-9)"
          transform="matrix(-1,0,0,-1.0125,91.999998,197.325)" />
        <image width="128" height="128" preserveAspectRatio="none" style="display:inline;image-rendering:optimizeSpeed"
          xlink:href="skin.png" id="image226-8-0-8-5-8" x="8" y="58" clip-path="url(#clipPath3227-5)"
          transform="matrix(1.025,0,0,1,2.899995,8.1000006)" />
        <image width="128" height="128" preserveAspectRatio="none" style="display:inline;image-rendering:optimizeSpeed"
          xlink:href="skin.png" id="image226-8-0-6-9-8" x="-4" y="10" clip-path="url(#clipPath3214-5)"
          transform="matrix(1,0,0,1.0040816,-24.000005,15.536737)" />
        <image width="128" height="128" preserveAspectRatio="none" style="display:inline;image-rendering:optimizeSpeed"
          xlink:href="skin.png" id="image226-8-0-2-7-5" x="12" y="136" clip-path="url(#clipPath3640-4)"
          transform="matrix(1.0125,0,0,1,31.749993,-45.899983)" />
        <image width="128" height="128" preserveAspectRatio="none" style="display:inline;image-rendering:optimizeSpeed"
          xlink:href="skin.png" id="image226-8-0-2-6-7" x="12" y="136" clip-path="url(#clipPath3297-8)"
          transform="matrix(1,0,0,1.0083333,-16.000009,-47.566665)" />
        <image width="128" height="128" preserveAspectRatio="none" style="display:inline;image-rendering:optimizeSpeed"
          xlink:href="skin.png" id="image226-8-0-6-7-6" x="32" y="130" clip-path="url(#clipPath3220-4)"
          transform="matrix(1,0,0,1.0041153,-60.000005,-104.96173)" />
        <image width="128" height="128" preserveAspectRatio="none" style="display:inline;image-rendering:optimizeSpeed"
          xlink:href="skin.png" id="image226-8-0-2-4-8" x="12" y="136" clip-path="url(#clipPath3436-3)"
          transform="matrix(1.0125,0,0,1.0041667,-0.550006,-46.733331)" />
        <image width="128" height="128" preserveAspectRatio="none" style="display:inline;image-rendering:optimizeSpeed"
          xlink:href="skin.png" id="image226-8-0-8-2" x="8" y="58" clip-path="url(#clipPath3233-8)"
          transform="translate(-44.000005,8.1000016)" />
      </g>
      <g inkscape:label="head" inkscape:groupmode="layer" id="layer1-4" style="display:inline">
        <image width="128" height="128" preserveAspectRatio="none" style="image-rendering:optimizeSpeed"
          xlink:href="skin.png" id="image226-9-4" x="-2" y="56" clip-path="url(#clipPath590-9)"
          transform="matrix(-1,0,0,-1.0062501,69.999997,112.45)" />
        <image width="128" height="128" preserveAspectRatio="none" style="image-rendering:optimizeSpeed"
          xlink:href="skin.png" id="image226-3-5" x="16" y="86" clip-path="url(#clipPath453-4)"
          transform="matrix(0,1.0166667,-1,0,142,-24.599998)" />
        <image width="128" height="128" preserveAspectRatio="none" style="image-rendering:optimizeSpeed"
          xlink:href="skin.png" id="image226-3-8-7" x="16" y="86" clip-path="url(#clipPath449-4)"
          transform="matrix(0,-1.0166667,1,0,-78.000006,56.733333)" />
        <image width="128" height="128" preserveAspectRatio="none" style="image-rendering:optimizeSpeed"
          xlink:href="skin.png" id="image226-0-29" x="6" y="76" clip-path="url(#clipPath457-4)"
          transform="matrix(0,1.0166663,-1,0,132,1.3666815)" />
        <image width="128" height="128" preserveAspectRatio="none" style="image-rendering:optimizeSpeed"
          xlink:href="skin.png" id="image226-0-2-7" x="6" y="76" clip-path="url(#clipPath461-41)"
          transform="matrix(0,-1.0166663,1,0,-68.000007,94.899984)" />
        <image width="128" height="128" preserveAspectRatio="none" style="image-rendering:optimizeSpeed"
          xlink:href="skin.png" id="image226-5-0" x="10" y="82" clip-path="url(#clipPath556-23)"
          transform="matrix(-1,0,0,-1.0166667,97.999997,107.56667)" />
        <image width="128" height="128" preserveAspectRatio="none" style="image-rendering:optimizeSpeed"
          xlink:href="skin.png" id="image226-01-8" x="24" y="64" clip-path="url(#clipPath564-5)"
          transform="matrix(1,0,0,1.0166667,-4.6e-6,-25.066666)" />
        <image width="128" height="128" preserveAspectRatio="none" style="image-rendering:optimizeSpeed"
          xlink:href="skin.png" id="image226-2-4" x="12" y="64" clip-path="url(#clipPath560-4)"
          transform="matrix(1.0166667,0,0,1,59.699995,-55.899998)" />
        <image width="128" height="128" preserveAspectRatio="none" style="image-rendering:optimizeSpeed"
          xlink:href="skin.png" id="image226-7-6" x="0" y="0" clip-path="url(#clipPath489-2)"
          transform="translate(7.999996,8.1000006)" />
      </g>
      <g inkscape:groupmode="layer" id="layer3-8" inkscape:label="right_arm" transform="translate(112,-72)"
        style="display:inline;stroke:#ffffff">
        <image width="128" height="128" preserveAspectRatio="none" style="stroke:#ffffff;image-rendering:optimizeSpeed"
          xlink:href="skin.png" id="image226-8-8-7-3-9-8" x="26" y="82" clip-path="url(#clipPath1509-7)"
          transform="rotate(90,73.999982,67.999987)" />
        <image width="128" height="128" preserveAspectRatio="none" style="stroke:#ffffff;image-rendering:optimizeSpeed"
          xlink:href="skin.png" id="image226-8-8-7-3-97" x="26" y="82" clip-path="url(#clipPath1513-2)"
          transform="rotate(-90,83.999985,162)" />
        <image width="128" height="128" preserveAspectRatio="none" style="stroke:#ffffff;image-rendering:optimizeSpeed"
          xlink:href="skin.png" id="image226-8-8-2-7" x="26" y="82" clip-path="url(#clipPath1517-8)"
          transform="rotate(180,82.999995,135.00001)" />
        <image width="128" height="128" preserveAspectRatio="none" style="stroke:#ffffff;image-rendering:optimizeSpeed"
          xlink:href="skin.png" id="image226-8-8-84-5" x="26" y="82" clip-path="url(#clipPath1324-6)"
          transform="matrix(1.0045455,0,0,1,-118.46772,-29.867709)" />
        <image width="128" height="128" preserveAspectRatio="none" style="stroke:#ffffff;image-rendering:optimizeSpeed"
          xlink:href="skin.png" id="image226-8-8-2-8-9" x="26" y="82" clip-path="url(#clipPath1407-1)"
          transform="matrix(-1,0,0,-1.0250002,165.99999,209.25003)" />
        <image width="128" height="128" preserveAspectRatio="none" style="stroke:#ffffff;image-rendering:optimizeSpeed"
          xlink:href="skin.png" id="image226-8-8-8-6-6" x="26" y="82" clip-path="url(#clipPath1595-18)"
          transform="matrix(0,1.0249997,-1,0,157.99999,-32.849969)" />
        <image width="128" height="128" preserveAspectRatio="none" style="stroke:#ffffff;image-rendering:optimizeSpeed"
          xlink:href="skin.png" id="image226-8-8-8-6-2-5" x="26" y="82" clip-path="url(#clipPath1591-81)"
          transform="matrix(0,-1.025,1,0,-94.000027,209.04999)" />
        <image width="128" height="128" preserveAspectRatio="none"
          style="display:inline;stroke:#ffffff;image-rendering:optimizeSpeed" xlink:href="skin.png"
          id="image226-8-8-7-1" x="26" y="82" clip-path="url(#clipPath1158-4)"
          transform="matrix(1,0,0,1.0125,-94.000027,0.57500055)" />
        <image width="128" height="128" preserveAspectRatio="none"
          style="display:inline;stroke:#ffffff;image-rendering:optimizeSpeed" xlink:href="skin.png"
          id="image226-8-8-8-9" x="26" y="82" clip-path="url(#clipPath1122-19)"
          transform="translate(-86.000029,-29.9)" />
        <g aria-label="右腕 接着面" transform="matrix(0,-0.26458333,0.26458333,0,10.507274,223.46252)" id="text2999-3"
          style="white-space:pre;shape-inside:url(#rect3001-2);display:inline;stroke-width:1.13386;paint-order:stroke fill markers">
          <path
            d="m 436.63086,100.56445 q 0.23437,0.0469 0.32812,0.14063 0.23438,0.1875 -0.1875,0.375 -0.14062,0.46875 -0.32812,1.07812 h 5.57812 v 1.21875 h -5.90625 q -0.32812,0.89063 -0.79687,1.73438 h 5.67187 v 5.53125 h -1.3125 v -0.46875 h -4.26562 v 0.65625 h -1.3125 v -3.9375 q -0.89063,0.98437 -2.10938,1.92187 l -0.84375,-1.17187 q 0.51563,-0.32813 0.9375,-0.70313 1.73438,-1.40625 2.57813,-3.5625 h -3.09375 v -1.21875 h 3.46875 q 0.28125,-0.79687 0.46875,-1.875 z m -1.21875,5.76563 v 2.625 h 4.26562 v -2.625 z"
            style="font-size:12px;font-family:HGPGothicE;-inkscape-font-specification:'HGPGothicE, Normal'"
            id="path1866" />
          <path
            d="m 451.06836,100.14258 q 0.5625,0.0469 0.1875,0.375 v 1.17187 h 3 v 2.01563 h -1.125 v -0.89063 h -4.78125 v 0.375 l 0.89062,0.0937 q 0.23438,0.0469 0.32813,0.0937 0.0937,0.0937 0.0469,0.1875 -0.0469,0.0469 -0.1875,0.0937 -0.0469,0.14063 -0.0937,0.28125 h 1.3125 v 1.5 q -0.0469,1.03125 -0.46875,2.48438 -0.28125,0.84375 -0.84375,1.6875 -0.65625,0.98437 -1.78125,1.73437 l -0.51562,-0.79687 q -0.0469,0.23437 -0.14063,0.375 -0.0937,0.1875 -0.375,0.1875 h -1.125 l -0.14062,-1.125 h 0.32812 q 0.0469,0 0.0937,0 0.0937,0 0.14063,-0.0937 0.0469,-0.0469 0.0469,-0.23438 v -2.34375 h -0.79687 q 0,0.60938 -0.0469,1.17188 -0.14062,1.6875 -0.84375,2.76562 l -0.98437,-0.84375 q 0.65625,-0.89062 0.65625,-2.67187 v -6.98438 h 3.23437 v 6.04688 q 0.42188,-0.60938 0.79688,-1.54688 0.28125,-0.75 0.32812,-1.26562 h -0.98437 v -2.29688 h 2.71875 v -1.54687 z m -6,1.73437 v 1.54688 h 0.79687 v -1.54688 z m 8.8125,6 q 0,0.23438 -0.0937,0.375 -0.1875,0.28125 -0.60938,0.28125 h -1.07812 l -0.0937,-1.03125 h 0.51562 q 0.14063,0 0.1875,-0.0469 0.0469,-0.0469 0.0469,-0.23438 v -2.29687 h -0.84375 v 4.64062 q 0,0.1875 0.0469,0.23438 0.0469,0.0469 0.1875,0.0469 h 0.75 q 0.1875,0 0.23438,-0.0937 0.0469,-0.0937 0.0937,-0.375 l 0.0937,-0.60937 1.17187,0.32812 -0.1875,0.98438 q -0.0469,0.1875 -0.0937,0.32812 -0.28125,0.5625 -0.79687,0.5625 h -1.92188 q -0.28125,0 -0.46875,-0.14062 -0.23437,-0.1875 -0.23437,-0.51563 v -6.51562 h 3.09375 z m -8.8125,-3.32812 v 1.64062 h 0.79687 v -1.64062 z m 4.07812,0.51562 q -0.1875,0.60938 -0.42187,1.17188 l 0.51562,0.375 q 0.23438,-0.75 0.23438,-1.54688 z m -0.9375,2.20313 q -0.0937,0.1875 -0.23437,0.375 -0.1875,0.28125 -0.46875,0.51562 l -0.42188,-0.65625 v 2.53125 q 0.32813,-0.1875 0.65625,-0.46875 0.84375,-0.75 1.21875,-1.6875 -0.46875,-0.46875 -0.75,-0.60937 z"
            style="font-size:12px;font-family:HGPGothicE;-inkscape-font-specification:'HGPGothicE, Normal'"
            id="path1868" />
          <path
            d="m 461.75586,100.14258 q 0.5625,0.0469 0.1875,0.375 v 1.73437 h 1.26562 v 1.21875 h -1.26562 v 2.0625 l 0.89062,-0.28125 v -1.07812 h 1.73438 l -0.32813,-1.5 h -0.75 v -1.21875 h 2.25 v -1.3125 h 1.125 q 0.5625,0.0469 0.1875,0.375 v 0.9375 h 2.57813 v 1.21875 h -0.98438 l -0.375,1.5 h 2.01563 v 1.125 h -3.375 l -0.42188,0.84375 h 3.42188 v 1.21875 h -1.21875 q -0.14063,0.46875 -0.46875,1.21875 -0.14063,0.28125 -0.23438,0.375 1.07813,0.42187 2.10938,1.125 l -0.75,1.07812 q -1.03125,-0.60937 -2.29688,-1.21875 -1.59375,1.125 -3.75,1.40625 l -0.51562,-1.26562 q 0.42187,-0.0469 0.79687,-0.0937 1.17188,-0.14063 2.20313,-0.60938 -0.46875,-0.23437 -0.79688,-0.32812 l -0.23437,0.42187 -1.17188,-0.5625 q 0.46875,-0.75 0.89063,-1.54687 h -1.26563 V 106.377 l -1.26562,0.46875 v 3.46875 q 0,0.1875 -0.0469,0.375 -0.1875,0.60938 -0.89062,0.60938 h -1.03125 l -0.14063,-1.3125 h 0.51563 q 0.1875,0 0.23437,-0.0937 0.0469,-0.0937 0.0469,-0.23438 v -2.39062 l -0.65625,0.23437 q -0.0469,0.1875 -0.0937,0.23438 -0.0469,0.0469 -0.14063,0 -0.0937,-0.0469 -0.1875,-0.28125 l -0.375,-1.125 1.45313,-0.42188 v -2.4375 h -1.17188 v -1.21875 h 1.17188 v -2.10937 z m 3.84375,2.53125 0.32812,1.5 h 0.98438 l 0.375,-1.5 z m -2.71875,2.625 0.32812,0.84375 h 1.875 l 0.42188,-0.84375 z m 2.625,2.8125 q 0.60937,0.1875 1.21875,0.375 0.23437,-0.23438 0.46875,-0.70313 0.0937,-0.23437 0.14062,-0.42187 h -1.40625 z"
            style="font-size:12px;font-family:HGPGothicE;-inkscape-font-specification:'HGPGothicE, Normal'"
            id="path1870" />
          <path
            d="m 480.74023,105.81445 v 5.34375 h -1.3125 v -0.375 h -3.375 v 0.51563 h -1.21875 v -5.48438 z m -1.3125,-5.39062 q 0.23438,0.0937 0.28125,0.1875 0.0937,0.14062 0,0.1875 -0.0469,0.0469 -0.1875,0.0469 -0.23437,0.375 -0.42187,0.60938 h 2.57812 v 1.125 h -4.21875 v 0.28125 h 3.32813 v 1.125 h -3.32813 v 0.375 h 4.82813 v 1.125 h -7.5 q 0.0469,3.04687 -2.625,5.15625 l -0.79688,-1.03125 q 0.75,-0.46875 1.3125,-1.26563 0.89063,-1.3125 0.89063,-2.85937 h -2.10938 v -1.125 h 4.6875 v -0.375 h -3.1875 v -1.125 h 3.1875 v -0.28125 h -4.125 v -1.125 h 2.20313 q 0,-0.0937 -0.0937,-0.1875 -0.23438,-0.28125 -0.42188,-0.46875 l 1.125,-0.65625 q 0.42188,0.46875 0.98438,1.3125 h 1.78125 q 0.51562,-0.5625 0.84375,-1.45313 z m -3.375,6.23437 v 0.42188 h 3.375 v -0.42188 z m 0,1.35938 v 0.42187 h 3.375 v -0.42187 z m 0,1.35937 v 0.46875 h 3.375 v -0.46875 z"
            style="font-size:12px;font-family:HGPGothicE;-inkscape-font-specification:'HGPGothicE, Normal'"
            id="path1872" />
          <path
            d="m 494.09961,102.1582 h -4.35938 l -0.375,1.21875 h 4.17188 v 7.54688 h -1.3125 v -0.42188 h -6.79688 v 0.65625 h -1.3125 v -7.78125 h 3.89063 l 0.23437,-1.21875 h -4.6875 v -1.21875 h 10.54688 z m -8.67188,2.4375 v 4.6875 h 1.26563 v -4.6875 z m 2.57813,0 v 0.79688 h 1.64062 v -0.79688 z m 2.95312,0 v 4.6875 h 1.26563 v -4.6875 z m -2.95312,1.92188 v 0.79687 h 1.64062 v -0.79687 z m 0,1.92187 v 0.84375 h 1.64062 v -0.84375 z"
            style="font-size:12px;font-family:HGPGothicE;-inkscape-font-specification:'HGPGothicE, Normal'"
            id="path1874" />
        </g>
      </g>
      <g inkscape:groupmode="layer" id="layer5-3" inkscape:label="left_arm" transform="translate(23.999999,-72)"
        style="display:inline">
        <image width="128" height="128" preserveAspectRatio="none" style="display:inline;image-rendering:optimizeSpeed"
          xlink:href="skin.png" id="image226-8-2-0-5-0" x="96" y="106" clip-path="url(#clipPath2090-6)"
          transform="matrix(0,-1.025,1,0,-134.00001,304.59998)" />
        <image width="128" height="128" preserveAspectRatio="none" style="display:inline;image-rendering:optimizeSpeed"
          xlink:href="skin.png" id="image226-8-2-0-3-2" x="96" y="106" clip-path="url(#clipPath2086-6)"
          transform="matrix(0,1.025,-1,0,293.99999,-64.399976)" />
        <image width="128" height="128" preserveAspectRatio="none" style="display:inline;image-rendering:optimizeSpeed"
          xlink:href="skin.png" id="image226-8-2-0-0-7" x="96" y="106" clip-path="url(#clipPath2066-1)"
          transform="matrix(0,1.025,-1,0,293.99999,-88.199997)" />
        <image width="128" height="128" preserveAspectRatio="none" style="display:inline;image-rendering:optimizeSpeed"
          xlink:href="skin.png" id="image226-8-2-0-0-3-4" x="96" y="106" clip-path="url(#clipPath2062-45)"
          transform="matrix(0,-1.025,1,0,-134.00001,264.4)" />
        <image width="128" height="128" preserveAspectRatio="none" style="display:inline;image-rendering:optimizeSpeed"
          xlink:href="skin.png" id="image226-8-2-5-1" x="96" y="106" clip-path="url(#clipPath1978-35)"
          transform="matrix(1.0125,0,0,1,-126.29999,-117.9)" />
        <image width="128" height="128" preserveAspectRatio="none" style="display:inline;image-rendering:optimizeSpeed"
          xlink:href="skin.png" id="image226-8-2-5-6-7" x="96" y="106" clip-path="url(#clipPath2058-8)"
          transform="matrix(-1,0,0,-1.025,267.99997,299.45)" inkscape:transform-center-x="37.9204"
          inkscape:transform-center-y="-38.137665" />
        <image width="128" height="128" preserveAspectRatio="none" style="display:inline;image-rendering:optimizeSpeed"
          xlink:href="skin.png" id="image226-8-2-5-6-2-0" x="96" y="106" clip-path="url(#clipPath2094-1)"
          transform="matrix(-1,0,0,-1.025,267.99997,363.85)" inkscape:transform-center-x="37.9204"
          inkscape:transform-center-y="-38.137665" />
        <image width="128" height="128" preserveAspectRatio="none" style="display:inline;image-rendering:optimizeSpeed"
          xlink:href="skin.png" id="image226-8-2-0-55" x="96" y="106" clip-path="url(#clipPath1827-2)"
          transform="matrix(1,0,0,1.0125,-99.999987,-88.524997)" />
        <image width="128" height="128" preserveAspectRatio="none" style="display:inline;image-rendering:optimizeSpeed"
          xlink:href="skin.png" id="image226-8-2-3-5" x="96" y="106" clip-path="url(#clipPath2082-37)"
          transform="translate(-92.000009,-117.9)" />
        <g aria-label="左腕 接着面" transform="matrix(0,0.26458333,-0.26458333,0,101.12521,-21.199792)" id="text2999-5-3"
          style="white-space:pre;shape-inside:url(#rect3001-8-5-6);display:inline;stroke:#ffffff;stroke-width:1.13386;paint-order:stroke fill markers">
          <path
            d="m 436.67773,100.4707 q 0.28125,0.0469 0.32813,0.23438 0,0.0937 -0.0469,0.14062 -0.0469,0.0937 -0.1875,0.0937 -0.0937,0.60938 -0.1875,1.125 h 5.39063 v 1.40625 h -5.57813 q -0.23437,0.98438 -0.42187,1.64063 h 5.10937 v 1.40625 h -2.67187 v 2.76562 h 3.65625 v 1.40625 h -8.57813 v -1.40625 h 3.51563 v -2.76562 h -1.64063 q -0.32812,0.75 -1.125,1.6875 -0.9375,1.07812 -1.78125,1.78125 l -0.89062,-1.17188 q 0.79687,-0.60937 1.45312,-1.35937 1.45313,-1.5 1.92188,-3.98438 h -3.14063 v -1.40625 h 3.42188 q 0.1875,-1.03125 0.1875,-1.82812 z"
            style="font-size:12px;font-family:HGPGothicE;-inkscape-font-specification:'HGPGothicE, Normal'"
            id="path1854" />
          <path
            d="m 451.06836,100.14258 q 0.5625,0.0469 0.1875,0.375 v 1.17187 h 3 v 2.01563 h -1.125 v -0.89063 h -4.78125 v 0.375 l 0.89062,0.0937 q 0.23438,0.0469 0.32813,0.0937 0.0937,0.0937 0.0469,0.1875 -0.0469,0.0469 -0.1875,0.0937 -0.0469,0.14063 -0.0937,0.28125 h 1.3125 v 1.5 q -0.0469,1.03125 -0.46875,2.48438 -0.28125,0.84375 -0.84375,1.6875 -0.65625,0.98437 -1.78125,1.73437 l -0.51562,-0.79687 q -0.0469,0.23437 -0.14063,0.375 -0.0937,0.1875 -0.375,0.1875 h -1.125 l -0.14062,-1.125 h 0.32812 q 0.0469,0 0.0937,0 0.0937,0 0.14063,-0.0937 0.0469,-0.0469 0.0469,-0.23438 v -2.34375 h -0.79687 q 0,0.60938 -0.0469,1.17188 -0.14062,1.6875 -0.84375,2.76562 l -0.98437,-0.84375 q 0.65625,-0.89062 0.65625,-2.67187 v -6.98438 h 3.23437 v 6.04688 q 0.42188,-0.60938 0.79688,-1.54688 0.28125,-0.75 0.32812,-1.26562 h -0.98437 v -2.29688 h 2.71875 v -1.54687 z m -6,1.73437 v 1.54688 h 0.79687 v -1.54688 z m 8.8125,6 q 0,0.23438 -0.0937,0.375 -0.1875,0.28125 -0.60938,0.28125 h -1.07812 l -0.0937,-1.03125 h 0.51562 q 0.14063,0 0.1875,-0.0469 0.0469,-0.0469 0.0469,-0.23438 v -2.29687 h -0.84375 v 4.64062 q 0,0.1875 0.0469,0.23438 0.0469,0.0469 0.1875,0.0469 h 0.75 q 0.1875,0 0.23438,-0.0937 0.0469,-0.0937 0.0937,-0.375 l 0.0937,-0.60937 1.17187,0.32812 -0.1875,0.98438 q -0.0469,0.1875 -0.0937,0.32812 -0.28125,0.5625 -0.79687,0.5625 h -1.92188 q -0.28125,0 -0.46875,-0.14062 -0.23437,-0.1875 -0.23437,-0.51563 v -6.51562 h 3.09375 z m -8.8125,-3.32812 v 1.64062 h 0.79687 v -1.64062 z m 4.07812,0.51562 q -0.1875,0.60938 -0.42187,1.17188 l 0.51562,0.375 q 0.23438,-0.75 0.23438,-1.54688 z m -0.9375,2.20313 q -0.0937,0.1875 -0.23437,0.375 -0.1875,0.28125 -0.46875,0.51562 l -0.42188,-0.65625 v 2.53125 q 0.32813,-0.1875 0.65625,-0.46875 0.84375,-0.75 1.21875,-1.6875 -0.46875,-0.46875 -0.75,-0.60937 z"
            style="font-size:12px;font-family:HGPGothicE;-inkscape-font-specification:'HGPGothicE, Normal'"
            id="path1856" />
          <path
            d="m 461.75586,100.14258 q 0.5625,0.0469 0.1875,0.375 v 1.73437 h 1.26562 v 1.21875 h -1.26562 v 2.0625 l 0.89062,-0.28125 v -1.07812 h 1.73438 l -0.32813,-1.5 h -0.75 v -1.21875 h 2.25 v -1.3125 h 1.125 q 0.5625,0.0469 0.1875,0.375 v 0.9375 h 2.57813 v 1.21875 h -0.98438 l -0.375,1.5 h 2.01563 v 1.125 h -3.375 l -0.42188,0.84375 h 3.42188 v 1.21875 h -1.21875 q -0.14063,0.46875 -0.46875,1.21875 -0.14063,0.28125 -0.23438,0.375 1.07813,0.42187 2.10938,1.125 l -0.75,1.07812 q -1.03125,-0.60937 -2.29688,-1.21875 -1.59375,1.125 -3.75,1.40625 l -0.51562,-1.26562 q 0.42187,-0.0469 0.79687,-0.0937 1.17188,-0.14063 2.20313,-0.60938 -0.46875,-0.23437 -0.79688,-0.32812 l -0.23437,0.42187 -1.17188,-0.5625 q 0.46875,-0.75 0.89063,-1.54687 h -1.26563 V 106.377 l -1.26562,0.46875 v 3.46875 q 0,0.1875 -0.0469,0.375 -0.1875,0.60938 -0.89062,0.60938 h -1.03125 l -0.14063,-1.3125 h 0.51563 q 0.1875,0 0.23437,-0.0937 0.0469,-0.0937 0.0469,-0.23438 v -2.39062 l -0.65625,0.23437 q -0.0469,0.1875 -0.0937,0.23438 -0.0469,0.0469 -0.14063,0 -0.0937,-0.0469 -0.1875,-0.28125 l -0.375,-1.125 1.45313,-0.42188 v -2.4375 h -1.17188 v -1.21875 h 1.17188 v -2.10937 z m 3.84375,2.53125 0.32812,1.5 h 0.98438 l 0.375,-1.5 z m -2.71875,2.625 0.32812,0.84375 h 1.875 l 0.42188,-0.84375 z m 2.625,2.8125 q 0.60937,0.1875 1.21875,0.375 0.23437,-0.23438 0.46875,-0.70313 0.0937,-0.23437 0.14062,-0.42187 h -1.40625 z"
            style="font-size:12px;font-family:HGPGothicE;-inkscape-font-specification:'HGPGothicE, Normal'"
            id="path1858" />
          <path
            d="m 480.74023,105.81445 v 5.34375 h -1.3125 v -0.375 h -3.375 v 0.51563 h -1.21875 v -5.48438 z m -1.3125,-5.39062 q 0.23438,0.0937 0.28125,0.1875 0.0937,0.14062 0,0.1875 -0.0469,0.0469 -0.1875,0.0469 -0.23437,0.375 -0.42187,0.60938 h 2.57812 v 1.125 h -4.21875 v 0.28125 h 3.32813 v 1.125 h -3.32813 v 0.375 h 4.82813 v 1.125 h -7.5 q 0.0469,3.04687 -2.625,5.15625 l -0.79688,-1.03125 q 0.75,-0.46875 1.3125,-1.26563 0.89063,-1.3125 0.89063,-2.85937 h -2.10938 v -1.125 h 4.6875 v -0.375 h -3.1875 v -1.125 h 3.1875 v -0.28125 h -4.125 v -1.125 h 2.20313 q 0,-0.0937 -0.0937,-0.1875 -0.23438,-0.28125 -0.42188,-0.46875 l 1.125,-0.65625 q 0.42188,0.46875 0.98438,1.3125 h 1.78125 q 0.51562,-0.5625 0.84375,-1.45313 z m -3.375,6.23437 v 0.42188 h 3.375 v -0.42188 z m 0,1.35938 v 0.42187 h 3.375 v -0.42187 z m 0,1.35937 v 0.46875 h 3.375 v -0.46875 z"
            style="font-size:12px;font-family:HGPGothicE;-inkscape-font-specification:'HGPGothicE, Normal'"
            id="path1860" />
          <path
            d="m 494.09961,102.1582 h -4.35938 l -0.375,1.21875 h 4.17188 v 7.54688 h -1.3125 v -0.42188 h -6.79688 v 0.65625 h -1.3125 v -7.78125 h 3.89063 l 0.23437,-1.21875 h -4.6875 v -1.21875 h 10.54688 z m -8.67188,2.4375 v 4.6875 h 1.26563 v -4.6875 z m 2.57813,0 v 0.79688 h 1.64062 v -0.79688 z m 2.95312,0 v 4.6875 h 1.26563 v -4.6875 z m -2.95312,1.92188 v 0.79687 h 1.64062 v -0.79687 z m 0,1.92187 v 0.84375 h 1.64062 v -0.84375 z"
            style="font-size:12px;font-family:HGPGothicE;-inkscape-font-specification:'HGPGothicE, Normal'"
            id="path1862" />
        </g>
      </g>
      <g inkscape:groupmode="layer" id="layer9-0" inkscape:label="inner" transform="rotate(-90,56.000001,124)"
        style="display:inline">
        <image width="128" height="128" preserveAspectRatio="none" style="display:inline;image-rendering:optimizeSpeed"
          xlink:href="skin.png" id="image226-8-9-6-1" x="104" y="112" clip-path="url(#clipPath3748-5)"
          transform="matrix(1.00625,0,0,1,-69.25,-10.000004)" />
        <image width="128" height="128" preserveAspectRatio="none" style="display:inline;image-rendering:optimizeSpeed"
          xlink:href="skin.png" id="image226-8-9-6-5-0" x="104" y="112" clip-path="url(#clipPath3820-7)"
          transform="matrix(1.0125,0,0,1,-112.4,-9.999998)" />
        <image width="128" height="128" preserveAspectRatio="none" style="display:inline;image-rendering:optimizeSpeed"
          xlink:href="skin.png" id="image226-8-9-0-5" x="104" y="112" clip-path="url(#clipPath927-4)"
          transform="translate(-65.099997,-9.999998)" />
        <path style="display:inline;fill:none;stroke:#000000;stroke-width:0.15;stroke-dasharray:none"
          d="m 99.900003,166.00001 1.999997,18 h 12 l 2,-18" id="path3864-6" />
        <g aria-label="前
のりしろ" transform="matrix(0.26458333,0,0,0.26458333,-36.000672,126.87465)" id="text2999-8-53"
          style="text-align:center;white-space:pre;shape-inside:url(#rect3001-0-4);display:inline;stroke:#ffffff;stroke-width:1.13386;paint-order:stroke fill markers">
          <path
            d="m 464.23535,105.5332 v -0.9375 h -2.0625 v 0.9375 z m 0,0.89063 h -2.0625 v 0.98437 h 2.0625 z m -0.14062,3.70312 q 0.14062,0 0.14062,-0.14062 v -1.6875 h -2.0625 v 2.8125 h -0.9375 v -7.40625 h 3.9375 v 6.51562 q 0,0.79688 -0.75,0.79688 h -0.9375 l -0.23437,-0.89063 z m 2.4375,-6.1875 h 0.9375 v 5.39063 h -0.9375 z m 2.39062,6.14063 q 0.14063,0 0.14063,-0.14063 v -6.375 h 0.89062 q 0.46875,0.0937 0.0469,0.375 v 6.23438 q 0,0.79687 -0.75,0.79687 h -1.03125 l -0.1875,-0.89062 z m -0.79687,-9.14063 q -0.28125,0.51563 -0.70313,1.17188 h 3.5625 v 0.89062 H 460.2041 v -0.89062 h 3.1875 q -0.28125,-0.65625 -0.65625,-1.125 l 0.84375,-0.46875 q 0.51563,0.51562 1.03125,1.59375 h 1.73438 q 0.51562,-0.89063 0.84375,-1.78125 l 1.07812,0.375 q 0.1875,0.1875 -0.14062,0.23437 z"
            id="path1877" />
          <path
            d="m 448.11035,119.33524 q -0.79687,4.6875 -1.92187,5.8125 -0.60938,0.60937 -1.26563,0.60937 -0.75,0 -1.17187,-0.42187 -1.125,-1.125 -1.125,-2.8125 0,-2.0625 1.45312,-3.51563 1.59375,-1.59375 3.89063,-1.59375 2.0625,0 3.23437,1.17188 1.3125,1.3125 1.3125,3.09375 0,1.92187 -1.21875,3.14062 -0.79687,0.79688 -2.4375,1.54688 l -0.98437,-0.98438 q 1.64062,-0.51562 2.57812,-1.45312 0.89063,-0.89063 0.89063,-2.15625 0,-1.5 -0.98438,-2.48438 -0.98437,-0.98437 -3.09375,-0.89062 l 0.84375,0.42187 q 0.5625,0.23438 0,0.51563 z m -1.07812,-0.89063 q -1.21875,0.28125 -2.10938,1.17188 -1.21875,1.21875 -1.21875,3 0,1.07812 0.70313,1.78125 0.14062,0.14062 0.42187,0.14062 0.28125,0 0.60938,-0.32812 1.07812,-1.07813 1.59375,-5.76563 z"
            id="path1879" />
          <path
            d="m 461.75098,121.58524 q 0,-3.1875 -0.1875,-4.92188 h 0.9375 q 0.51562,0.0469 0.0937,0.375 0.14062,1.5 0.14062,4.59375 0,3.51563 -3.32812,5.29688 l -0.79688,-0.79688 q 3.14063,-1.5 3.14063,-4.54687 z m -3.1875,1.54687 q -0.42188,0.32813 -0.9375,0.32813 -0.32813,0 -0.60938,-0.28125 -0.32812,-0.32813 -0.32812,-2.8125 0,-1.875 0.1875,-3.42188 h 1.03125 q 0.375,0.14063 0,0.32813 -0.23438,1.125 -0.23438,3.09375 0,2.01562 0.1875,2.01562 0.14063,0 0.375,-0.1875 0.32813,-0.28125 1.07813,-1.26562 l 0.70312,0.70312 q -0.79687,0.98438 -1.45312,1.5 z"
            id="path1881" />
          <path
            d="m 476.23535,124.25711 q -2.01562,2.20313 -4.35937,2.20313 -1.6875,0 -2.48438,-0.79688 -0.60937,-0.60937 -0.60937,-2.34375 v -6.28125 h 0.98437 q 0.42188,0.0937 0.0937,0.375 v 5.90625 q 0,1.17188 0.42188,1.59375 0.51562,0.51563 1.54687,0.51563 1.82813,0 3.70313,-2.0625 z"
            id="path1883" />
          <path
            d="m 482.1416,125.52274 q 3.51563,0.0469 4.40625,-0.84375 0.51563,-0.51563 0.51563,-1.3125 0,-0.89063 -0.46875,-1.35938 -0.51563,-0.51562 -1.73438,-0.51562 -2.85937,0 -4.54687,2.48437 l -0.79688,-0.79687 q 3.04688,-3 4.40625,-5.25 -1.54687,0.23437 -3.09375,0.42187 l -0.32812,-1.07812 q 1.6875,0 4.07812,-0.32813 l 0.32813,-0.14062 0.5625,0.51562 q 0.42187,0.42188 -0.14063,0.51563 -1.26562,1.64062 -2.48437,3.1875 1.35937,-0.375 2.20312,-0.375 1.5,0 2.29688,0.79687 0.70312,0.70313 0.70312,1.92188 0,1.21875 -0.75,1.96875 -1.125,1.125 -4.6875,1.17187 z"
            id="path1885" />
        </g>
        <g aria-label="後" transform="matrix(0.26458333,0,0,0.26458333,-15.401467,126.87465)" id="text2999-8-5-9"
          style="text-align:center;white-space:pre;shape-inside:url(#rect3001-0-9-4);display:inline;stroke:#ffffff;stroke-width:1.13386;paint-order:stroke fill markers">
          <path
            d="m 467.18848,109.56445 q -1.45313,1.03125 -3.89063,1.5 l -0.32812,-0.98437 q 2.25,-0.28125 3.51562,-1.17188 -0.51562,-0.60937 -0.89062,-1.35937 -0.65625,0.9375 -1.82813,1.6875 l -0.5625,-0.75 q 1.82813,-1.17188 2.39063,-2.76563 l -1.78125,0.0937 q -0.0469,0.32813 -0.23438,0.14063 l -0.32812,-1.07813 1.875,-0.0469 0.89062,-0.75 q -1.07812,-0.75 -1.96875,-1.17188 l 0.51563,-0.79687 0.46875,0.23437 q 0.79687,-0.98437 1.40625,-2.15625 l 0.79687,0.46875 q 0.42188,0.23438 -0.0469,0.32813 -0.60938,0.84375 -1.45313,1.82812 0.46875,0.28125 0.89063,0.5625 0.84375,-0.79687 1.73437,-2.0625 l 0.84375,0.51563 q 0.1875,0.1875 -0.14062,0.23437 -0.89063,1.21875 -2.71875,2.76563 l 2.8125,-0.1875 q -0.375,-0.42188 -0.75,-0.79688 l 0.65625,-0.5625 q 1.07812,0.79688 1.78125,2.10938 l -0.79688,0.60937 -0.375,-0.65625 -3.04687,0.28125 -0.375,0.79688 h 2.34375 l 0.14062,-0.23438 0.79688,0.46875 q 0.32812,0.14063 -0.1875,0.28125 -0.65625,1.21875 -1.45313,1.96875 1.21875,0.75 3.04688,1.03125 l -0.375,1.07813 q -1.875,-0.42188 -3.375,-1.45313 z m 0,-1.17187 q 0.51562,-0.51563 0.98437,-1.21875 h -1.82812 q 0.28125,0.65625 0.84375,1.21875 z m -4.54688,2.67187 h -0.9375 v -4.82812 q -0.42187,0.42187 -0.98437,0.89062 l -0.42188,-0.9375 q 1.54688,-1.21875 2.53125,-3.14062 l 0.84375,0.5625 q 0.1875,0.1875 -0.14062,0.23437 -0.32813,0.5625 -0.89063,1.3125 z m 0.84375,-9.70312 q -0.84375,1.21875 -2.48437,2.34375 l -0.51563,-0.9375 q 1.40625,-0.9375 2.4375,-2.25 l 0.84375,0.65625 q 0.0469,0.23437 -0.28125,0.1875 z"
            id="path1888" />
        </g>
      </g>
    </g>
    <g inkscape:groupmode="layer" id="layer6-8" inkscape:label="lines">
      <g inkscape:groupmode="layer" id="layer4-0" inkscape:label="cut"
        style="display:inline;stroke:#ff0000;stroke-width:0.15;stroke-dasharray:none;stroke-opacity:1">
        <path
          style="fill:none;fill-opacity:0.317016;stroke:#ff0000;stroke-width:0.15;stroke-dasharray:none;stroke-opacity:1;paint-order:stroke fill markers"
          d="m 23.999996,8.1000005 h 16 V 24.1 v -6 h 10.000001 l 5.999998,6 6.000001,-6 h 4 l 5.999999,6 6.000001,2.000001 v 12 l -6.000001,1.999998 -5.999999,6.000002 h -4 l -6.000001,-6.000002 -5.999998,6.000002 H 39.999996 v -6.000002 16 h -16 v -16 6.000002 H 13.999997 L 7.9999969,40.099999 V 24.1 l 6.0000001,-6 h 9.999999 v 6 z"
          id="path2515-1" />
        <path
          style="fill:none;fill-opacity:0.317016;stroke:#ff0000;stroke-width:0.15;stroke-dasharray:none;stroke-opacity:1;paint-order:stroke fill markers"
          d="m 83.999988,20.100001 h 8.000002 l 1.999999,-4 h 6.000001 v 4 -8 l 2,-3.9999999 h 4 l 2,3.9999999 v 8 -4 h 6 l 2,4 5.99999,2 V 42.100002 L 115.99999,44.1 l -2,4 h -6 v -4 8 l -2,4 h -4 l -2,-4 v -8 4 h -6.000001 l -1.999999,-4 h -8.000002 z"
          id="path2517-7" />
        <path
          style="fill:none;fill-opacity:0.317016;stroke:#ff0000;stroke-width:0.15;stroke-dasharray:none;stroke-opacity:1;paint-order:stroke fill markers"
          d="m 125.99998,22.100001 6.00001,-2 1.99999,-4 h 6.00001 v 4 -8 l 1.99999,-3.9999999 h 4 l 2.00001,3.9999999 v 8 -4 h 5.99999 l 2.00001,4 h 8 V 44.1 h -8 l -2.00001,4 h -5.99999 v -4 8 l -2.00001,4 h -4 l -1.99999,-4 v -8 4 h -6.00001 l -1.99999,-4 -6.00001,-1.999998 z"
          id="path2519-4" />
        <path
          style="fill:none;fill-opacity:0.317016;stroke:#ff0000;stroke-width:0.15;stroke-dasharray:none;stroke-opacity:1;paint-order:stroke fill markers"
          d="m 23.999996,64.099999 h 15.999999 v 8 h 8 l 2.000001,-8 h 12 l 2.000001,8 4,2.000001 v 21.999998 h -4 l 8,2 V 118.1 l -8,2 H 15.999996 V 96.099998 h 8 -4 V 74.1 l 4,-2.000001 z"
          id="path2521-1" sodipodi:nodetypes="cccccccccccccccccccc" />
        <path
          style="fill:none;fill-opacity:0.317016;stroke:#ff0000;stroke-width:0.15;stroke-dasharray:none;stroke-opacity:1;paint-order:stroke fill markers"
          d="m 43.999995,72.099999 v 23.999999 h 4 -8" id="path2523-1" />
        <path
          style="fill:none;fill-opacity:0.317016;stroke:#ff0000;stroke-width:0.15;stroke-dasharray:none;stroke-opacity:1;paint-order:stroke fill markers"
          d="m 80.000006,64.099996 h 17.99999 l 18.000014,2.000001 v 12 L 97.999996,80.099995 V 106.1 l -1.99999,8 h -14 l -2,-8 z"
          id="path2543-6" />
      </g>
      <g inkscape:groupmode="layer" id="layer8-7" inkscape:label="ori">
        <path
          style="fill:none;fill-opacity:1;stroke:#ffffff;stroke-width:0.15;stroke-dasharray:0.15, 1.2;stroke-dashoffset:0;stroke-opacity:1;paint-order:stroke fill markers"
          d="M 7.9999969,24.1 H 71.999995 V 40.099999 H 7.9999969" id="path6268-2" />
        <path
          style="fill:none;fill-opacity:1;stroke:#ffffff;stroke-width:0.15;stroke-dasharray:0.15, 1.2;stroke-dashoffset:0;stroke-opacity:1;paint-order:stroke fill markers"
          d="M 23.999996,24.1 V 40.099999" id="path6270-8" />
        <path
          style="fill:none;fill-opacity:1;stroke:#ffffff;stroke-width:0.15;stroke-dasharray:0.15, 1.2;stroke-dashoffset:0;stroke-opacity:1;paint-order:stroke fill markers"
          d="M 39.999996,24.1 V 40.099999" id="path6272-2" />
        <path
          style="fill:none;fill-opacity:1;stroke:#ffffff;stroke-width:0.15;stroke-dasharray:0.15, 1.2;stroke-dashoffset:0;stroke-opacity:1;paint-order:stroke fill markers"
          d="M 55.999995,24.1 V 40.099999" id="path6274-1" />
        <path
          style="fill:none;fill-opacity:1;stroke:#ffffff;stroke-width:0.15;stroke-dasharray:0.15, 1.2;stroke-dashoffset:0;stroke-opacity:1;paint-order:stroke fill markers"
          d="M 99.99999,44.1 V 20.100001 h -8 V 44.1 h 24 V 20.100001 h -16" id="path6276-6" />
        <path
          style="fill:none;fill-opacity:1;stroke:#ffffff;stroke-width:0.15;stroke-dasharray:0.15, 1.2;stroke-dashoffset:0;stroke-opacity:1;paint-order:stroke fill markers"
          d="M 107.99999,44.1 V 20.100001" id="path6278-6" />
        <path
          style="fill:none;fill-opacity:1;stroke:#ffffff;stroke-width:0.15;stroke-dasharray:0.15, 1.2;stroke-dashoffset:0;stroke-opacity:1;paint-order:stroke fill markers"
          d="m 107.99999,12.100001 h -8" id="path6280-7" />
        <path
          style="fill:none;fill-opacity:1;stroke:#ffffff;stroke-width:0.15;stroke-dasharray:0.15, 1.2;stroke-dashoffset:0;stroke-opacity:1;paint-order:stroke fill markers"
          d="m 99.99999,52.1 h 8" id="path6282-5" />
        <path
          style="fill:none;fill-opacity:1;stroke:#ffffff;stroke-width:0.15;stroke-dasharray:0.15, 1.2;stroke-dashoffset:0;stroke-opacity:1;paint-order:stroke fill markers"
          d="M 139.99999,44.1 V 20.100001 h 16 V 44.1 h -24 V 20.100001 h 8" id="path6284-7" />
        <path
          style="fill:none;fill-opacity:1;stroke:#ffffff;stroke-width:0.15;stroke-dasharray:0.15, 1.2;stroke-dashoffset:0;stroke-opacity:1;paint-order:stroke fill markers"
          d="m 139.99999,12.100001 h 8" id="path6286-4" />
        <path
          style="fill:none;fill-opacity:1;stroke:#ffffff;stroke-width:0.15;stroke-dasharray:0.15, 1.2;stroke-dashoffset:0;stroke-opacity:1;paint-order:stroke fill markers"
          d="m 139.99999,52.1 h 8" id="path6288-1" />
        <path
          style="fill:none;fill-opacity:1;stroke:#ffffff;stroke-width:0.15;stroke-dasharray:0.15, 1.2;stroke-dashoffset:0;stroke-opacity:1;paint-order:stroke fill markers"
          d="M 147.99999,44.1 V 20.100001" id="path6290-3" />
        <path
          style="fill:none;fill-opacity:1;stroke:#ffffff;stroke-width:0.15;stroke-dasharray:0.15, 1.2;stroke-dashoffset:0;stroke-opacity:1;paint-order:stroke fill markers"
          d="M 23.999996,120.1 V 72.099999 H 39.999995 V 120.1" id="path6292-6" />
        <path
          style="fill:none;fill-opacity:1;stroke:#ffff00;stroke-width:0.15;stroke-dasharray:0.15, 1.2;stroke-dashoffset:0;stroke-opacity:1;paint-order:stroke fill markers"
          d="M 23.999996,96.099998 H 39.999995" id="path6294-7" />
        <path
          style="fill:none;fill-opacity:1;stroke:#ffffff;stroke-width:0.15;stroke-dasharray:0.15, 1.2;stroke-dashoffset:0;stroke-opacity:1;paint-order:stroke fill markers"
          d="M 47.999995,120.1 V 72.099999 H 63.999997 V 120.1" id="path6296-2" />
        <path
          style="fill:none;fill-opacity:1;stroke:#ffffff;stroke-width:0.15;stroke-dasharray:0.15, 1.2;stroke-dashoffset:0;stroke-opacity:1;paint-order:stroke fill markers"
          d="M 63.999997,96.099998 H 47.999995" id="path6298-5" />
        <path
          style="fill:none;fill-opacity:1;stroke:#ffffff;stroke-width:0.15;stroke-dasharray:0.15, 1.2;stroke-dashoffset:0;stroke-opacity:1;paint-order:stroke fill markers"
          d="M 97.999996,80.099995 H 80.000006" id="path6300-8" />
        <path
          style="fill:none;fill-opacity:1;stroke:#ffffff;stroke-width:0.15;stroke-dasharray:0.15, 1.2;stroke-dashoffset:0;stroke-opacity:1;paint-order:stroke fill markers"
          d="M 97.999996,85.099998 H 80.000006" id="path6302-0" />
        <path
          style="fill:none;fill-opacity:1;stroke:#ffffff;stroke-width:0.15;stroke-dasharray:0.15, 1.2;stroke-dashoffset:0;stroke-opacity:1;paint-order:stroke fill markers"
          d="M 97.999996,106.1 H 80.000006" id="path6304-4" />
        <path
          style="fill:none;fill-opacity:1;stroke:#ffffff;stroke-width:0.15;stroke-dasharray:0.15, 1.2;stroke-dashoffset:0;stroke-opacity:1;paint-order:stroke fill markers"
          d="m 80.000006,101.1 h 17.99999" id="path6306-2" />
      </g>
    </g>
  </g>
</svg>